<?xml version="1.0" encoding="UTF-8"?>
<svg version="1.1" xmlns="http://www.w3.org/2000/svg" width="1024" height="1024">
<path d="M0 0 C1.09985985 0.00303635 1.09985985 0.00303635 2.22193909 0.00613403 C2.99147415 0.00438171 3.76100922 0.00262939 4.55386353 0.00082397 C7.12293195 -0.00360812 9.69193233 -0.00064499 12.26100159 0.00271606 C14.06056227 0.00204177 15.86012286 0.0010707 17.65968323 -0.00018311 C21.45632279 -0.00166321 25.25293895 0.00049841 29.04957581 0.00515747 C33.84023528 0.01075836 38.63083808 0.00754021 43.42149544 0.00172424 C77.1288375 -0.03320889 77.1288375 -0.03320889 92.50318909 0.56521606 C93.45403381 0.60186371 94.40487854 0.63851135 95.38453674 0.67626953 C117.27717662 1.68977104 143.16174965 8.13241323 159.88600159 23.13552856 C160.59635559 23.74606079 160.59635559 23.74606079 161.32106018 24.368927 C181.21532978 41.49020245 194.22017247 63.7734406 196.88600159 90.13552856 C197.00250061 91.25942993 197.00250061 91.25942993 197.12135315 92.40603638 C199.77018857 120.06330985 194.04074941 148.74291405 176.49000549 170.8977356 C156.9818205 194.17832973 129.91008986 207.42537569 99.88600159 211.13552856 C87.54408752 212.22024867 75.23448593 212.268168 62.85475159 212.23318481 C60.88221778 212.23131456 58.90968349 212.22989354 56.93714905 212.22889709 C51.80153571 212.22511968 46.66595167 212.21533151 41.53034973 212.20419312 C36.26739396 212.193875 31.00443335 212.18937742 25.74147034 212.18435669 C15.45630137 212.17370385 5.17115394 212.15668649 -5.11399841 212.13552856 C-5.82767833 208.91641991 -6.23989602 205.932023 -6.24339294 202.63650513 C-6.2465451 201.77921814 -6.24969727 200.92193115 -6.25294495 200.03866577 C-6.25092072 199.12703674 -6.24889648 198.21540771 -6.24681091 197.27615356 C-6.248246 195.85867828 -6.248246 195.85867828 -6.24971008 194.41256714 C-6.25038889 192.42227105 -6.24855553 190.43197271 -6.24436951 188.44168091 C-6.23899318 185.38254899 -6.24433682 182.32356232 -6.25071716 179.26443481 C-6.2500568 177.33084074 -6.24877649 175.39724675 -6.24681091 173.46365356 C-6.24883514 172.54392761 -6.25085938 171.62420166 -6.25294495 170.67660522 C-6.22896406 164.25049421 -6.22896406 164.25049421 -5.11399841 163.13552856 C-2.42164065 162.8987414 0.25098314 162.71354831 2.94850159 162.57302856 C3.70711487 162.52984497 4.46572815 162.48666138 5.24732971 162.44216919 C7.12665596 162.33579223 9.00630402 162.23512922 10.88600159 162.13552856 C10.1499469 161.133927 9.41389221 160.13232544 8.65553284 159.10037231 C7.66983209 157.75794177 6.68415634 156.41549287 5.69850159 155.07302856 C5.21574768 154.41625122 4.73299377 153.75947388 4.23561096 153.08279419 C3.26247601 151.75697945 2.29284625 150.42858506 1.32667542 149.09768677 C0.38083379 147.80947644 -0.58251004 146.53390002 -1.56443787 145.27297974 C-4.30311893 141.68211184 -5.75203095 139.21903255 -5.92649841 134.57302856 C-5.97419373 133.46701294 -6.02188904 132.36099731 -6.07102966 131.22146606 C-6.16676185 125.09146743 -6.15472928 118.9567752 -6.07810974 112.82669067 C-6.0324123 108.10476138 -6.30660378 103.79967433 -7.11399841 99.13552856 C-6.78399841 98.14552856 -6.45399841 97.15552856 -6.11399841 96.13552856 C-6.02734435 93.11239665 -5.99851387 90.11295295 -6.01634216 87.09011841 C-6.01780243 86.16469742 -6.0192627 85.23927643 -6.02076721 84.28581238 C-6.02457431 82.27563316 -6.03069204 80.26545732 -6.03883362 78.25529099 C-6.05156803 75.07910237 -6.05810504 71.90295537 -6.06297302 68.72674561 C-6.07441402 61.98798793 -6.09366607 55.24926451 -6.11399841 48.51052856 C-6.13754596 40.69731522 -6.15794808 32.88412126 -6.16993713 25.07088089 C-6.17644936 21.93260363 -6.18895615 18.79438544 -6.2016449 15.65612793 C-6.20527522 13.74480237 -6.20862722 11.83347626 -6.21165466 9.92214966 C-6.21682098 9.04213791 -6.2219873 8.16212616 -6.22731018 7.25544739 C-6.22749079 5.21512482 -6.17645935 3.17489485 -6.11399841 1.13552856 C-4.41079485 -0.567675 -2.27213068 0.00965463 0 0 Z M53.88600159 53.13552856 C53.88600159 88.11552856 53.88600159 123.09552856 53.88600159 159.13552856 C90.98467177 160.90834113 90.98467177 160.90834113 123.32350159 145.57302856 C133.24639646 134.62583486 136.23947684 121.24810729 136.07350159 106.94802856 C136.07285706 105.88132935 136.07221252 104.81463013 136.07154846 103.71560669 C135.99649339 90.38082156 132.40321688 77.9016851 122.88600159 68.13552856 C103.27764258 50.09729887 79.26501286 53.13552856 53.88600159 53.13552856 Z " fill="#FE3B45" transform="translate(218.11399841308594,385.8644714355469)"/>
<path d="M0 0 C-0.73741703 4.89175809 -2.5266186 9.29429213 -4.30859375 13.87890625 C-4.63537613 14.72799057 -4.96215851 15.57707489 -5.29884338 16.45188904 C-5.98874547 18.24201786 -6.68059594 20.03139685 -7.37426758 21.82006836 C-8.43448147 24.55471421 -9.48823824 27.29178071 -10.54101562 30.02929688 C-11.21316242 31.77097974 -11.88567611 33.51252107 -12.55859375 35.25390625 C-12.87324081 36.07065323 -13.18788788 36.88740021 -13.5120697 37.72889709 C-13.80900223 38.49326584 -14.10593475 39.25763458 -14.41186523 40.04516602 C-14.6708812 40.71403336 -14.92989716 41.3829007 -15.19676208 42.07203674 C-16.04164787 44.09996486 -16.99614318 46.04651717 -18 48 C-19.65 48 -21.3 48 -23 48 C-23 47.34 -23 46.68 -23 46 C-35.38613119 41.72115468 -47.93953108 37.52026622 -61 36 C-62.67835938 35.79890625 -62.67835938 35.79890625 -64.390625 35.59375 C-74.13959974 34.64891544 -84.64010597 34.22032018 -93 40 C-95.08606926 42.65499724 -94.99879455 44.06750504 -94.9375 47.5 C-93.78511395 51.80224124 -92.62091769 52.51890986 -89 55 C-80.7481814 58.97994553 -72.41209202 61.65171976 -63.4140625 63.359375 C-62.61742187 63.57078125 -61.82078125 63.7821875 -61 64 C-60.67 64.66 -60.34 65.32 -60 66 C-58.15542302 66.51246943 -58.15542302 66.51246943 -55.875 66.8125 C-36.88687466 70.34580173 -14.02903594 79.49506501 -2.5 95.65234375 C2.21198095 103.02708477 4.79329702 109.16814539 5 118 C4.67 117.34 4.34 116.68 4 116 C2.37181054 116.22830701 0.7473651 116.48343576 -0.875 116.75 C-1.77992188 116.88921875 -2.68484375 117.0284375 -3.6171875 117.171875 C-6.11926 117.76110332 -6.11926 117.76110332 -7.140625 119.83984375 C-7.56601562 120.90912109 -7.56601562 120.90912109 -8 122 C-8.92330922 123.29650307 -9.88609959 124.5653047 -10.875 125.8125 C-11.4834375 126.58335937 -12.091875 127.35421875 -12.71875 128.1484375 C-14.50789622 130.38487027 -16.29983163 132.61896142 -18.09375 134.8515625 C-18.63402832 135.52469482 -19.17430664 136.19782715 -19.73095703 136.89135742 C-20.81839309 138.24475831 -21.9078808 139.59651354 -22.99951172 140.9465332 C-23.50240723 141.57132568 -24.00530273 142.19611816 -24.5234375 142.83984375 C-25.202854 143.68083618 -25.202854 143.68083618 -25.89599609 144.53881836 C-27.08816117 146.02434469 -27.08816117 146.02434469 -28 148 C-20.08 148.33 -12.16 148.66 -4 149 C-10.09943815 167.29831445 -21.43938309 182.60351641 -38.9375 191.4921875 C-61.38518768 201.37150838 -85.10897583 200.54311067 -109 198 C-109.83821289 197.91169922 -110.67642578 197.82339844 -111.54003906 197.73242188 C-119.74942712 196.82700087 -119.74942712 196.82700087 -123 196 C-123.33 195.34 -123.66 194.68 -124 194 C-126.32825047 193.6328416 -128.66292004 193.30596213 -131 193 C-140.26402427 190.47818462 -148.69332284 186.90533276 -157.171875 182.453125 C-159.966047 180.92671171 -159.966047 180.92671171 -163 180 C-164.25499661 177.38426344 -164.02159823 176.07644718 -163.23071289 173.27709961 C-162.8155542 172.24593018 -162.40039551 171.21476074 -161.97265625 170.15234375 C-161.5135083 168.99766602 -161.05436035 167.84298828 -160.58129883 166.65332031 C-160.07538342 165.41457019 -159.5691104 164.17596606 -159.0625 162.9375 C-158.55607698 161.67708207 -158.0504656 160.41633774 -157.5456543 159.15527344 C-153.4870998 149.05256551 -149.29914266 139.0025898 -145 129 C-145.66 128.67 -146.32 128.34 -147 128 C-142.6033947 128.6328447 -138.94666935 130.31338802 -135 132.25 C-114.28123766 142.10416872 -85.94868253 152.38790584 -63 145 C-59.82021306 143.57924413 -58.43433037 142.71072243 -56.625 139.75 C-55.8129991 136.17719604 -56.13036111 133.54545086 -57 130 C-58.485 129.01 -58.485 129.01 -60 128 C-60 127.34 -60 126.68 -60 126 C-66.96961847 123.58464162 -73.99186609 121.61962744 -81.125 119.75 C-127.79095178 107.26879927 -127.79095178 107.26879927 -143 94 C-144.00160156 93.21109375 -144.00160156 93.21109375 -145.0234375 92.40625 C-145.97089844 91.64828125 -145.97089844 91.64828125 -146.9375 90.875 C-147.75541016 90.22144531 -147.75541016 90.22144531 -148.58984375 89.5546875 C-150.41918324 87.53785338 -151.07602885 85.55494857 -152 83 C-152.4021875 82.11183594 -152.804375 81.22367187 -153.21875 80.30859375 C-160.05546053 64.98852595 -161.17880344 47.97714349 -156 31.89453125 C-148.15192109 11.93872533 -134.39212334 -0.44757637 -115 -9 C-80.11529276 -23.42161081 -32.42247973 -18.51494237 0 0 Z " fill="#FE3B45" transform="translate(204,400)"/>
<path d="M0 0 C6.1055471 -0.02464513 12.21106551 -0.04283371 18.31665039 -0.05493164 C20.39543156 -0.05997288 22.47420916 -0.06680574 24.55297852 -0.07543945 C27.53402586 -0.08751422 30.51502649 -0.09323024 33.49609375 -0.09765625 C34.89921059 -0.10539818 34.89921059 -0.10539818 36.33067322 -0.11329651 C37.19149002 -0.11337204 38.05230682 -0.11344757 38.93920898 -0.11352539 C40.08171364 -0.11685631 40.08171364 -0.11685631 41.24729919 -0.12025452 C43 0 43 0 44 1 C44.07244053 3.01964199 44.08377188 5.04167124 44.0625 7.0625 C44.05347656 8.16722656 44.04445313 9.27195312 44.03515625 10.41015625 C44.02355469 11.26480469 44.01195312 12.11945313 44 13 C40.58934861 14.03974499 37.47735158 14.11508506 33.921875 14.09765625 C32.76171875 14.09443359 31.6015625 14.09121094 30.40625 14.08789062 C29.1996875 14.07951172 27.993125 14.07113281 26.75 14.0625 C25.52796875 14.05798828 24.3059375 14.05347656 23.046875 14.04882812 C20.03120054 14.03704815 17.01562502 14.02059853 14 14 C13.67 17.63 13.34 21.26 13 25 C13.99 25.33 14.98 25.66 16 26 C15.01 26 14.02 26 13 26 C13 26.66 13 27.32 13 28 C14.9490625 27.7525 14.9490625 27.7525 16.9375 27.5 C24.60503519 26.71443723 32.30287867 26.91963562 40 27 C40.96070434 29.88211302 41.10581883 31.69850044 41.0625 34.6875 C41.05347656 35.49574219 41.04445313 36.30398438 41.03515625 37.13671875 C41.02355469 37.75160156 41.01195312 38.36648438 41 39 C37.82212459 40.0592918 35.57411057 40.11458939 32.23828125 40.09765625 C31.12001953 40.09443359 30.00175781 40.09121094 28.84960938 40.08789062 C27.68236328 40.07951172 26.51511719 40.07113281 25.3125 40.0625 C24.13365234 40.05798828 22.95480469 40.05347656 21.74023438 40.04882812 C18.82680133 40.03703285 15.91339433 40.01909727 13 40 C13 44.62 13 49.24 13 54 C23.23 54 33.46 54 44 54 C44 58.29 44 62.58 44 67 C38.33333333 67 32.66666667 67 27 67 C26.67 67.66 26.34 68.32 26 69 C26 68.01 26 67.02 26 66 C25.35417969 66.16242188 24.70835937 66.32484375 24.04296875 66.4921875 C20.10887038 67.14871226 16.29300529 67.14525702 12.3125 67.125 C11.54099609 67.12886719 10.76949219 67.13273437 9.97460938 67.13671875 C4.25345092 67.12672546 4.25345092 67.12672546 2 66 C2 66.66 2 67.32 2 68 C2.99 68.33 3.98 68.66 5 69 C3.68 69 2.36 69 1 69 C-0.41697193 66.16605613 -0.11945929 63.79126262 -0.11352539 60.62255859 C-0.11367142 59.96877731 -0.11381744 59.31499603 -0.1139679 58.6414032 C-0.11327036 56.47704773 -0.1054854 54.31277796 -0.09765625 52.1484375 C-0.09579151 50.64913988 -0.09436787 49.14984166 -0.09336853 47.65054321 C-0.08954779 43.70168378 -0.07972128 39.75286104 -0.06866455 35.80401611 C-0.05844091 31.77559913 -0.05386887 27.74717622 -0.04882812 23.71875 C-0.03809862 15.81248315 -0.0210275 7.90624614 0 0 Z " fill="#050505" transform="translate(619,431)"/>
<path d="M0 0 C1.93166016 0.01740234 1.93166016 0.01740234 3.90234375 0.03515625 C5.19269531 0.04417969 6.48304688 0.05320312 7.8125 0.0625 C8.81152344 0.07410156 9.81054688 0.08570313 10.83984375 0.09765625 C14.10264159 7.07888786 16.77039008 14.21153802 19.33984375 21.47265625 C20.1001002 23.60552587 20.8605157 25.7383388 21.62109375 27.87109375 C21.9871875 28.90331055 22.35328125 29.93552734 22.73046875 30.99902344 C24.16010982 34.99220225 25.63690219 38.96747376 27.12304688 42.93994141 C27.83984375 45.09765625 27.83984375 45.09765625 27.83984375 47.09765625 C28.82984375 47.59265625 28.82984375 47.59265625 29.83984375 48.09765625 C30.62109375 50.1015625 30.62109375 50.1015625 31.33984375 52.66015625 C31.59378906 53.55605469 31.84773437 54.45195312 32.109375 55.375 C33.06571837 58.93955256 33.97602837 62.50950007 34.83984375 66.09765625 C31.69053482 67.14742589 29.45169919 67.1989722 26.15234375 67.16015625 C25.15847656 67.15113281 24.16460938 67.14210938 23.140625 67.1328125 C22.38136719 67.12121094 21.62210938 67.10960937 20.83984375 67.09765625 C20.49050781 66.25460937 20.14117188 65.4115625 19.78125 64.54296875 C19.09869141 62.89941406 19.09869141 62.89941406 18.40234375 61.22265625 C17.72365234 59.58683594 17.72365234 59.58683594 17.03125 57.91796875 C16.34440912 56.29207001 15.62918488 54.67633851 14.83984375 53.09765625 C7.57984375 53.09765625 0.31984375 53.09765625 -7.16015625 53.09765625 C-9.85496277 59.02210079 -9.85496277 59.02210079 -12.16015625 65.09765625 C-13.16015625 67.09765625 -13.16015625 67.09765625 -14.84765625 67.97265625 C-18.03903638 68.14516328 -21.01312106 67.61262564 -24.16015625 67.09765625 C-25.15015625 67.09765625 -26.14015625 67.09765625 -27.16015625 67.09765625 C-25.83093525 60.49939488 -23.97511016 54.35739986 -21.640625 48.05078125 C-21.30017654 47.11772156 -20.95972809 46.18466187 -20.60896301 45.22332764 C-19.52713914 42.26280684 -18.43741568 39.30526383 -17.34765625 36.34765625 C-16.62776038 34.37908714 -15.90835526 32.41033848 -15.18945312 30.44140625 C-4.10237481 0.12677302 -4.10237481 0.12677302 0 0 Z M2.83984375 17.09765625 C1.67085566 20.74274944 0.50504215 24.38885005 -0.66015625 28.03515625 C-0.99402344 29.07607422 -1.32789063 30.11699219 -1.671875 31.18945312 C-1.98769531 32.17880859 -2.30351563 33.16816406 -2.62890625 34.1875 C-2.92216797 35.10394287 -3.21542969 36.02038574 -3.51757812 36.96459961 C-4.20823018 38.88594862 -4.20823018 38.88594862 -4.16015625 40.09765625 C0.78984375 40.09765625 5.73984375 40.09765625 10.83984375 40.09765625 C9.51155029 32.57065997 7.82054381 25.16517554 4.83984375 18.09765625 C4.17984375 17.76765625 3.51984375 17.43765625 2.83984375 17.09765625 Z " fill="#040404" transform="translate(528.16015625,430.90234375)"/>
<path d="M0 0 C1.08732422 -0.020625 2.17464844 -0.04125 3.29492188 -0.0625 C14.24957238 -0.11457202 24.75955493 1.13422886 32.95703125 8.93359375 C40.74141654 17.07851899 42.76013212 25.13677095 42.59008789 36.13256836 C42.37444367 41.60675487 41.76475226 45.43912911 39.1875 50.25 C38.79691406 50.99507813 38.40632812 51.74015625 38.00390625 52.5078125 C34.06257768 59.27394597 28.89503228 63.73431265 21.21826172 65.77294922 C17.70748489 66.55339032 14.18369408 67.1658029 10.62890625 67.70703125 C7.21775868 68.14851712 7.21775868 68.14851712 4.1875 69.25 C2.328125 68.87890625 2.328125 68.87890625 0.1875 68.25 C-1.56071262 67.88711344 -3.31081326 67.53322765 -5.0625 67.1875 C-5.95453125 67.01089844 -6.8465625 66.83429688 -7.765625 66.65234375 C-8.44109375 66.51957031 -9.1165625 66.38679688 -9.8125 66.25 C-9.8125 67.24 -9.8125 68.23 -9.8125 69.25 C-10.8025 68.92 -11.7925 68.59 -12.8125 68.25 C-13.68621799 54.15646896 -13.87906308 40.18240935 -13.515625 26.06738281 C-13.43579584 22.93309025 -13.36956872 19.79869696 -13.3046875 16.6640625 C-13.2585921 14.66664852 -13.21174749 12.66925166 -13.1640625 10.671875 C-13.13428818 9.26914337 -13.13428818 9.26914337 -13.10391235 7.83807373 C-13.08073944 6.9849762 -13.05756653 6.13187866 -13.03369141 5.25292969 C-13.01513092 4.50130554 -12.99657043 3.7496814 -12.97744751 2.97528076 C-12.50369496 -1.97996931 -3.70671317 0.01691598 0 0 Z M-0.8125 10.25 C-2.08346493 15.12716302 -1.93905874 19.92570656 -1.91015625 24.92578125 C-1.9087413 25.8509404 -1.90732635 26.77609955 -1.90586853 27.72929382 C-1.90028715 30.67372927 -1.88773805 33.61808767 -1.875 36.5625 C-1.86998259 38.56314994 -1.86542011 40.56380108 -1.86132812 42.56445312 C-1.85032381 47.45966494 -1.83307198 52.35481942 -1.8125 57.25 C0.92205168 57.2939844 3.65589 57.32616335 6.390625 57.3515625 C7.16164551 57.36517822 7.93266602 57.37879395 8.72705078 57.39282227 C16.34854937 57.44591952 20.53913931 55.83950823 26 50.5 C30.82949195 43.32475482 32.08375247 36.88103404 31.1875 28.25 C29.98852965 22.23655957 28.10591535 18.13897958 23.1875 14.25 C18.04492571 11.08354352 13.68371022 10.7263695 7.8125 10.5625 C6.98105469 10.52833984 6.14960937 10.49417969 5.29296875 10.45898438 C3.25826649 10.37712854 1.22290792 10.31187299 -0.8125 10.25 Z " fill="#050605" transform="translate(737.8125,430.75)"/>
<path d="M0 0 C0 4.62 0 9.24 0 14 C-5 13 -5 13 -7.5 11.4375 C-12.80003464 9.26070006 -18.34115315 9.22936932 -24 10 C-25.94272209 11.23706241 -25.94272209 11.23706241 -27 13 C-27.15474612 15.56189845 -27.15474612 15.56189845 -26 18 C-22.55334498 20.41816827 -19.21144879 21.6575265 -15.1875 22.8125 C-8.3172001 25.0377326 -3.09372339 27.82564519 0.9375 33.9375 C3.5098894 41.35203416 3.11912463 46.86363703 0 54 C-3.91151035 59.14084217 -9.34675503 61.87592462 -15.4375 63.75 C-25.00999436 64.68390189 -33.32590797 63.33704602 -42 59 C-42 53.72 -42 48.44 -42 43 C-40.288125 43.99 -38.57625 44.98 -36.8125 46 C-30.20715501 49.32620698 -24.31137971 50.09407696 -17 49 C-16.01 48.34 -15.02 47.68 -14 47 C-14.37222462 43.87654994 -14.63223319 41.76843523 -16 39 C-18.71445011 37.10684122 -21.65973759 36.25262349 -24.8125 35.3125 C-31.9771151 33.04246632 -36.16175622 30.85190227 -40.75 24.625 C-43.29686283 19.27658805 -43.35756888 14.49210928 -41.71875 8.91796875 C-39.7326021 3.61797625 -36.97905316 0.37815128 -31.8984375 -2.18359375 C-21.09033398 -6.83152304 -10.24591638 -5.38344759 0 0 Z " fill="#050505" transform="translate(497,435)"/>
<path d="M0 0 C1.97249684 4.46908704 1.04237679 9.36721425 0 14 C-0.70511719 13.70351563 -1.41023437 13.40703125 -2.13671875 13.1015625 C-5.00322261 11.9987602 -7.84492532 11.16158606 -10.8125 10.375 C-11.78832031 10.11460937 -12.76414062 9.85421875 -13.76953125 9.5859375 C-14.50558594 9.39257812 -15.24164062 9.19921875 -16 9 C-16.33 9.66 -16.66 10.32 -17 11 C-17 10.01 -17 9.02 -17 8 C-18.31371987 8.47581198 -19.62594546 8.95575149 -20.9375 9.4375 C-21.66839844 9.70433594 -22.39929688 9.97117187 -23.15234375 10.24609375 C-24.98305678 10.85386948 -24.98305678 10.85386948 -26 12 C-26.04092937 14.33297433 -26.04241723 16.66705225 -26 19 C-25.47792969 19.17015625 -24.95585938 19.3403125 -24.41796875 19.515625 C-22.84495552 20.03353479 -21.27488745 20.56043198 -19.70703125 21.09375 C-17.88029797 21.70529707 -16.04371878 22.28808472 -14.19921875 22.84375 C-6.63434744 25.27120525 -1.78704108 28.51649913 2.4375 35.3125 C3.85679951 42.09359768 3.77113426 48.15696645 0.2578125 54.25 C-3.56180632 59.56425227 -8.71944994 62.59585623 -15 64 C-23.53472405 64.95999207 -32.63356031 63.73265941 -40.33203125 59.8125 C-42.83487561 57.09278154 -42.39309436 54.92563249 -42.25 51.3125 C-42.21390625 50.13300781 -42.1778125 48.95351563 -42.140625 47.73828125 C-42.09421875 46.83464844 -42.0478125 45.93101562 -42 45 C-41.01 44.505 -41.01 44.505 -40 44 C-38.11397531 44.97669136 -36.22817901 45.95382722 -34.34375 46.93359375 C-27.25653437 50.15827686 -21.31708071 50.4390269 -14 48 C-13.25367387 45.31322593 -12.78528708 43.6055105 -13.73144531 40.93725586 C-15.2738435 38.58180366 -16.2845521 38.1529936 -18.921875 37.25390625 C-20.08976563 36.83334961 -20.08976563 36.83334961 -21.28125 36.40429688 C-22.0959375 36.12650391 -22.910625 35.84871094 -23.75 35.5625 C-31.09651892 33.04453989 -36.82037997 30.77800805 -40.875 23.75 C-42.66535207 17.78215978 -42.99612605 12.62570022 -40.5 6.8125 C-37.5823457 1.68357086 -33.34816837 -1.64701576 -27.90234375 -3.84765625 C-19.37033475 -6.18582932 -7.0980436 -5.85630548 0 0 Z " fill="#050505" transform="translate(712,435)"/>
<path d="M0 0 C3.64576392 -0.05878077 7.29140352 -0.0938558 10.9375 -0.125 C12.46987305 -0.15013672 12.46987305 -0.15013672 14.03320312 -0.17578125 C23.28316896 -0.23488646 31.3095549 0.57145052 39 6 C43.26933534 11.39284463 44.36279694 15.88853647 44.28515625 22.62109375 C43.60142537 28.32509518 40.49070423 33.4618694 36 37 C33.25 38.25 33.25 38.25 31 39 C32.35643702 42.71710317 34.04660225 45.8054197 36.2578125 49.08203125 C36.88300781 50.01337891 37.50820313 50.94472656 38.15234375 51.90429688 C38.80332031 52.86400391 39.45429687 53.82371094 40.125 54.8125 C40.78371094 55.79154297 41.44242188 56.77058594 42.12109375 57.77929688 C43.74325789 60.18903347 45.36966846 62.59578494 47 65 C44.53643886 67.46356114 43.50020318 67.57244288 40.0625 67.75 C36.68098191 67.42922358 34.73856063 66.83365528 32.45654297 64.2578125 C28.8364647 59.11379618 25.91081962 53.56602962 23 48 C21.5286805 45.04538579 21.5286805 45.04538579 20 43 C19.01 43 18.02 43 17 43 C15.515 42.505 15.515 42.505 14 42 C12.66893378 41.65772583 11.33599921 41.32248257 10 41 C10.01047363 41.74685059 10.02094727 42.49370117 10.03173828 43.26318359 C10.0732077 46.63375508 10.09929729 50.004273 10.125 53.375 C10.14175781 54.550625 10.15851562 55.72625 10.17578125 56.9375 C10.18222656 58.05898438 10.18867187 59.18046875 10.1953125 60.3359375 C10.20578613 61.37282715 10.21625977 62.4097168 10.22705078 63.47802734 C10 66 10 66 8 68 C5.625 67.6875 5.625 67.6875 3 67 C1.66695023 66.66553444 0.3336665 66.33199783 -1 66 C-1.02714434 63.2915983 -1.04690846 60.58347279 -1.0625 57.875 C-1.07087891 57.11445313 -1.07925781 56.35390625 -1.08789062 55.5703125 C-1.10646509 51.2610356 -0.86117265 47.24483526 0 43 C-0.66 42.67 -1.32 42.34 -2 42 C-1.34 42 -0.68 42 0 42 C-0.10828125 40.86111328 -0.10828125 40.86111328 -0.21875 39.69921875 C-0.3115625 38.70535156 -0.404375 37.71148437 -0.5 36.6875 C-0.63921875 35.20830078 -0.63921875 35.20830078 -0.78125 33.69921875 C-1 31 -1 31 -1 28 C-1.01159799 26.0299472 -1.02333624 24.05989523 -1.03515625 22.08984375 C-1.04447439 19.70572995 -1.05358027 17.32161532 -1.0625 14.9375 C-1.07087891 13.72771484 -1.07925781 12.51792969 -1.08789062 11.27148438 C-1.09111328 10.11841797 -1.09433594 8.96535156 -1.09765625 7.77734375 C-1.10289307 6.71765381 -1.10812988 5.65796387 -1.11352539 4.56616211 C-1 2 -1 2 0 0 Z M10 10 C10 17.26 10 24.52 10 32 C12.97693988 33.48846994 15.5137461 32.95725155 18.8125 32.75 C20.03582031 32.68296875 21.25914062 32.6159375 22.51953125 32.546875 C26.10699555 31.98318813 28.10624708 31.14783123 31 29 C33.47443712 25.17586991 33.21946473 21.45489054 32.609375 17.08984375 C31.65470238 13.81580622 29.90753179 12.62280844 27 11 C23.42684269 9.79296028 19.99682528 9.90003175 16.25 9.9375 C13.15625 9.9684375 13.15625 9.9684375 10 10 Z " fill="#060707" transform="translate(790,431)"/>
<path d="M0 0 C0.84477905 0.00202423 1.68955811 0.00404846 2.55993652 0.00613403 C3.42179565 0.00517731 4.28365479 0.00422058 5.17163086 0.00323486 C6.99751864 0.00255304 8.82340884 0.00440749 10.64929199 0.00857544 C13.45419731 0.01392367 16.25894248 0.00863054 19.06384277 0.00222778 C20.83337438 0.00288856 22.60290588 0.00416973 24.37243652 0.00613403 C25.21721558 0.0041098 26.06199463 0.00208557 26.93237305 0 C32.85123621 0.02399622 32.85123621 0.02399622 33.96618652 1.13894653 C34.03798616 2.65822691 34.0501066 4.18062135 34.02868652 5.70144653 C34.01966309 6.5277356 34.01063965 7.35402466 34.00134277 8.20535278 C33.98974121 8.84343872 33.97813965 9.48152466 33.96618652 10.13894653 C27.88955533 11.75938152 21.01685894 11.89965028 14.96618652 10.13894653 C14.63618652 10.79894653 14.30618652 11.45894653 13.96618652 12.13894653 C13.63618652 11.80894653 13.30618652 11.47894653 12.96618652 11.13894653 C11.83181152 11.13894653 10.69743652 11.13894653 9.52868652 11.13894653 C5.96618652 11.13894653 5.96618652 11.13894653 3.96618652 10.13894653 C4.29618652 15.41894653 4.62618652 20.69894653 4.96618652 26.13894653 C13.21618652 26.46894653 21.46618652 26.79894653 29.96618652 27.13894653 C29.96618652 31.09894653 29.96618652 35.05894653 29.96618652 39.13894653 C27.51052246 39.0867395 27.51052246 39.0867395 25.00524902 39.03347778 C22.86723841 39.00534606 20.72921676 38.97804525 18.59118652 38.95144653 C17.51095215 38.92630981 16.43071777 38.9011731 15.31774902 38.87527466 C14.28649902 38.86560669 13.25524902 38.85593872 12.19274902 38.84597778 C11.23964844 38.83026733 10.28654785 38.81455688 9.30456543 38.79837036 C8.53290039 38.9107605 7.76123535 39.02315063 6.96618652 39.13894653 C4.56286173 42.74393373 4.52905228 45.65021746 4.34118652 49.82644653 C4.21743652 52.23957153 4.09368652 54.65269653 3.96618652 57.13894653 C13.86618652 57.13894653 23.76618652 57.13894653 33.96618652 57.13894653 C34.46118652 61.59394653 34.46118652 61.59394653 34.96618652 66.13894653 C30.52684631 67.24166375 26.18284164 67.28388762 21.63806152 67.27175903 C20.84845032 67.27271576 20.05883911 67.27367249 19.24530029 67.2746582 C17.58455322 67.27533626 15.92380345 67.27350816 14.26306152 67.26931763 C11.71091854 67.26393542 9.15894927 67.26928984 6.60681152 67.27566528 C4.9922278 67.275005 3.37764419 67.27372486 1.76306152 67.27175903 C0.99645203 67.27378326 0.22984253 67.2758075 -0.55999756 67.27789307 C-5.91884302 67.25391699 -5.91884302 67.25391699 -7.03381348 66.13894653 C-7.13316496 64.11944444 -7.16180855 62.09643739 -7.16320801 60.07449341 C-7.16636017 58.77644775 -7.16951233 57.4784021 -7.17276001 56.14102173 C-7.17097023 54.71324632 -7.16891928 53.28547122 -7.16662598 51.85769653 C-7.16729906 50.40420516 -7.16826911 48.95071389 -7.16952515 47.4972229 C-7.17100194 44.44728527 -7.16884818 41.39737687 -7.16418457 38.34744263 C-7.15848728 34.42964094 -7.16176639 30.51190775 -7.16775703 26.59410858 C-7.17136316 23.591639 -7.17022382 20.58918576 -7.16762924 17.5867157 C-7.16696012 16.14175916 -7.1677879 14.69680115 -7.1701088 13.25184631 C-7.17263613 11.2356977 -7.16810399 9.21954391 -7.16320801 7.20339966 C-7.16241241 6.05391846 -7.16161682 4.90443726 -7.16079712 3.72012329 C-6.92042821 -1.16581813 -4.26090607 0.01727454 0 0 Z " fill="#09090A" transform="translate(930.0338134765625,430.8610534667969)"/>
<path d="M0 0 C3.3 0 6.6 0 10 0 C12.83379644 7.51544795 15.55560141 15.0667958 18.2434082 22.63549805 C18.78910568 24.16914382 19.33695546 25.70202547 19.88696289 27.23413086 C25.5237008 42.93995654 25.5237008 42.93995654 27 51 C29.34725276 46.02204061 31.43065392 41.55112429 32 36 C32.66 36 33.32 36 34 36 C34.16943115 35.42314453 34.3388623 34.84628906 34.51342773 34.25195312 C36.57670165 27.2941617 38.78663346 20.39093542 41.0625 13.5 C41.41376953 12.4171875 41.76503906 11.334375 42.12695312 10.21875 C42.46791016 9.1875 42.80886719 8.15625 43.16015625 7.09375 C43.46574463 6.16240234 43.77133301 5.23105469 44.08618164 4.27148438 C45 2 45 2 47 0 C49.1640625 -0.1953125 49.1640625 -0.1953125 51.625 -0.125 C52.85089844 -0.09792969 52.85089844 -0.09792969 54.1015625 -0.0703125 C55.04128906 -0.03550781 55.04128906 -0.03550781 56 0 C55.3161796 5.85659086 53.33324779 11.14561164 51.359375 16.6640625 C50.99531555 17.69252289 50.6312561 18.72098328 50.25616455 19.78060913 C49.48518643 21.95501447 48.71175337 24.12855071 47.93603516 26.30126953 C46.76228125 29.59058318 45.59732189 32.88290913 44.43359375 36.17578125 C37.22585968 56.49575286 37.22585968 56.49575286 33 66 C31.99332275 66.12942993 31.99332275 66.12942993 30.96630859 66.26147461 C30.19367676 66.36081299 29.42104492 66.46015137 28.625 66.5625 C24.25 67.125 24.25 67.125 22 66 C21.03555898 63.52460138 20.17769217 61.08958029 19.375 58.5625 C19.03082031 57.52125977 19.03082031 57.52125977 18.6796875 56.45898438 C17 51.29494513 17 51.29494513 17 49 C16.34 48.67 15.68 48.34 15 48 C14.25390625 45.84765625 14.25390625 45.84765625 13.5625 43.0625 C13.30726563 42.07636719 13.05203125 41.09023438 12.7890625 40.07421875 C12.52867187 39.05972656 12.26828125 38.04523438 12 37 C11.49201927 35.12147719 10.97210565 33.24611976 10.4375 31.375 C10.20933594 30.55773437 9.98117187 29.74046875 9.74609375 28.8984375 C9.16775837 26.80518331 9.16775837 26.80518331 7 26 C6.18359375 23.70703125 6.18359375 23.70703125 5.4375 20.8125 C5.1796875 19.82121094 4.921875 18.82992188 4.65625 17.80859375 C4 15 4 15 3.4375 11.375 C3.293125 10.59125 3.14875 9.8075 3 9 C2.34 8.67 1.68 8.34 1 8 C0.40644386 5.35139573 0.25790731 2.70802678 0 0 Z " fill="#070707" transform="translate(861,431)"/>
<path d="M0 0 C1.1859375 0.00257813 2.371875 0.00515625 3.59375 0.0078125 C4.7796875 0.00523437 5.965625 0.00265625 7.1875 0 C10.09375 0.1328125 10.09375 0.1328125 11.09375 1.1328125 C11.18721915 2.79019693 11.21119977 4.45155894 11.20727539 6.11157227 C11.20719986 7.17259659 11.20712433 8.23362091 11.20704651 9.32679749 C11.20188522 10.4809465 11.19672394 11.63509552 11.19140625 12.82421875 C11.1899913 13.99919418 11.18857635 15.17416962 11.18711853 16.38475037 C11.18149992 20.15496314 11.16894426 23.92511754 11.15625 27.6953125 C11.1512374 30.24413977 11.14667408 32.79296797 11.14257812 35.34179688 C11.13237331 41.60550959 11.11280152 47.86909534 11.09375 54.1328125 C19.67375 54.1328125 28.25375 54.1328125 37.09375 54.1328125 C38.16771066 58.42865513 38.16704796 61.73493461 38.09375 66.1328125 C34.19069475 67.64081112 32.07910802 68.25369444 28.09375 67.1328125 C26.09162771 67.45315207 24.09135305 67.78540327 22.09375 68.1328125 C21.43375 67.8028125 20.77375 67.4728125 20.09375 67.1328125 C18.3533083 67.04831622 16.60965278 67.02558226 14.8671875 67.03515625 C13.8359375 67.03837891 12.8046875 67.04160156 11.7421875 67.04492188 C10.66195312 67.05330078 9.58171875 67.06167969 8.46875 67.0703125 C7.38078125 67.07482422 6.2928125 67.07933594 5.171875 67.08398438 C2.47911211 67.09579474 -0.21354188 67.11226472 -2.90625 67.1328125 C-3.10318992 64.46654891 -3.28899782 61.80024611 -3.46875 59.1328125 C-3.52482422 58.38902344 -3.58089844 57.64523437 -3.63867188 56.87890625 C-3.96972285 51.80279132 -3.67788045 47.16269988 -2.90625 42.1328125 C-3.56625 41.8028125 -4.22625 41.4728125 -4.90625 41.1328125 C-4.74253906 39.97257568 -4.57882812 38.81233887 -4.41015625 37.61694336 C-3.9000079 33.52175443 -3.80667291 29.51695233 -3.84375 25.38671875 C-3.84753662 24.69013657 -3.85132324 23.99355438 -3.85522461 23.27586365 C-3.86730445 21.08227923 -3.88595973 18.88883532 -3.90625 16.6953125 C-3.93276763 13.77995207 -3.95274785 10.86465357 -3.96875 7.94921875 C-3.98035156 6.66474854 -3.99195313 5.38027832 -4.00390625 4.05688477 C-3.87433016 0.17705272 -3.87433016 0.17705272 0 0 Z " fill="#020202" transform="translate(572.90625,430.8671875)"/>
<path d="M0 0 C2.53933099 2.10409311 3.93960571 3.99198613 5.61547852 6.82543945 C8.17013881 11.02826768 10.77947178 15.16633819 13.51391602 19.25512695 C14.21323242 20.30249023 14.91254883 21.34985352 15.63305664 22.42895508 C16.3375293 23.48147461 17.04200195 24.53399414 17.76782227 25.6184082 C18.49936523 26.7134668 19.2309082 27.80852539 19.98461914 28.93676758 C21.76545233 31.60219764 23.54736793 34.26689676 25.33032227 36.9309082 C25.26131714 35.31079834 25.26131714 35.31079834 25.19091797 33.65795898 C25.02462606 29.65911646 24.8783933 25.65975051 24.73828125 21.65991211 C24.67476549 19.92728008 24.60577574 18.19483986 24.53125 16.46264648 C24.42519972 13.97580311 24.33871491 11.48893908 24.25610352 9.0012207 C24.21874588 8.22408722 24.18138824 7.44695374 24.14289856 6.64627075 C24.08154297 4.46264648 24.08154297 4.46264648 24.33032227 0.9309082 C27.76552707 -1.35922833 29.31565326 -1.24752153 33.33032227 -1.0690918 C34.51692495 1.30411358 34.45713413 2.7460135 34.4597168 5.39306641 C34.46286896 6.31775223 34.46602112 7.24243805 34.4692688 8.19514465 C34.46724457 9.19720444 34.46522034 10.19926422 34.46313477 11.23168945 C34.46409149 12.2602153 34.46504822 13.28874115 34.46603394 14.34843445 C34.46671543 16.52818869 34.46486329 18.70794495 34.46069336 20.88769531 C34.45536101 24.21920361 34.46063096 27.55057608 34.46704102 30.88208008 C34.46637991 32.99861683 34.46509807 35.1151535 34.46313477 37.23168945 C34.465159 38.22767654 34.46718323 39.22366364 34.4692688 40.24983215 C34.46454056 41.65104561 34.46454056 41.65104561 34.4597168 43.08056641 C34.4589212 43.89838089 34.45812561 44.71619537 34.45730591 45.55879211 C34.32155665 48.09465413 33.88459945 50.45553912 33.33032227 52.9309082 C30.38210082 53.60654228 29.14452043 53.84391143 26.33032227 52.9309082 C23.07939349 49.69363879 20.77118819 45.79033595 18.33032227 41.9309082 C17.4181861 40.52991257 16.50402016 39.13023695 15.58813477 37.73168945 C13.67768133 34.80516166 11.78111457 31.87037908 9.89672852 28.92700195 C7.09733329 24.55698895 4.2283643 20.23597551 1.33032227 15.9309082 C0.33007063 23.82240868 0.21023546 31.60892889 0.26782227 39.5559082 C0.27233398 40.75086914 0.2768457 41.94583008 0.28149414 43.17700195 C0.29316623 46.09502467 0.30953901 49.01293858 0.33032227 51.9309082 C-1.31967773 51.9309082 -2.96967773 51.9309082 -4.66967773 51.9309082 C-4.99967773 52.5909082 -5.32967773 53.2509082 -5.66967773 53.9309082 C-6.32967773 53.6009082 -6.98967773 53.2709082 -7.66967773 52.9309082 C-7.99967773 35.7709082 -8.32967773 18.6109082 -8.66967773 0.9309082 C-2.66967773 -1.0690918 -2.66967773 -1.0690918 0 0 Z " fill="#080808" transform="translate(639.669677734375,522.069091796875)"/>
<path d="M0 0 C7.6237778 4.57426668 12.04873995 9.38964936 15.125 17.875 C16.97572537 25.76628736 16.25837394 33.7892161 12.125 40.875 C7.54022043 47.34476852 2.68330049 51.42500857 -5.03125 53.4375 C-11.92805374 54.60315697 -18.31647173 53.2514354 -24.14453125 49.359375 C-31.73590216 43.10600082 -34.50100439 36.86561669 -35.75390625 27.23046875 C-36.02679059 19.66893168 -33.74432498 12.69113818 -28.875 6.875 C-21.02272794 -0.90231004 -10.87493684 -4.17696438 0 0 Z M-22.45703125 10.52734375 C-27.41279877 17.28261187 -27.42006343 23.66931787 -26.875 31.875 C-25.73422931 37.01295932 -22.92861709 40.57554423 -18.875 43.875 C-13.93062299 46.13221559 -9.05053894 46.92358321 -3.79296875 45.1875 C1.04889194 43.03156945 3.62254844 40.679707 6.125 35.875 C8.1523906 29.46406215 8.32446926 21.59038947 5.5 15.4375 C2.7951917 10.81718689 -0.7381567 7.5872811 -5.875 5.875 C-11.93825937 5.39945025 -18.0669125 5.94210861 -22.45703125 10.52734375 Z " fill="#0A0A0A" transform="translate(714.875,522.125)"/>
<path d="M0 0 C6.48664182 3.88380865 11.0443117 9.52771043 13.75 16.5625 C15.78354432 26.7302216 14.16902481 35.28481639 8.75 44.1875 C1.15853842 51.35721371 -7.15390634 53.51755771 -17.5 53.3125 C-17.5 52.6525 -17.5 51.9925 -17.5 51.3125 C-18.20125 51.23 -18.9025 51.1475 -19.625 51.0625 C-23.1903452 50.13240995 -25.59015572 48.54563631 -28.5 46.3125 C-28.5 45.6525 -28.5 44.9925 -28.5 44.3125 C-29.16 44.3125 -29.82 44.3125 -30.5 44.3125 C-35.3644984 35.39425294 -37.69653351 27.45157134 -35.5 17.3125 C-32.7662655 8.80002972 -28.13412983 3.95936163 -20.5 -0.6875 C-14.1394501 -2.8076833 -6.12600875 -2.90487604 0 0 Z M-22.5 9.3125 C-28.22031113 16.49955758 -28.19966195 23.41398257 -27.5 32.3125 C-26.21509153 37.12172886 -24.32377234 39.65684447 -20.4375 42.75 C-15.8854177 45.17132037 -12.63545409 45.65486361 -7.5 45.3125 C-2.10769582 43.63902629 1.71309339 41.28989352 4.5 36.3125 C7.33496017 28.82312762 7.04214179 21.2970986 3.8125 14 C1.22390611 9.25739367 -2.42722337 7.00342554 -7.5 5.3125 C-13.43290775 4.73084238 -17.6931929 5.89548712 -22.5 9.3125 Z " fill="#0A0A0A" transform="translate(805.5,522.6875)"/>
<path d="M0 0 C0 2.97 0 5.94 0 9 C-0.66 9 -1.32 9 -2 9 C-2.495 8.01 -2.495 8.01 -3 7 C-8.69911174 4.22677152 -14.72275291 3.13539804 -21 4 C-26.73423456 6.05566899 -29.65497419 9.17544579 -32.25 14.625 C-33.93432871 22.20447921 -33.88978364 29.19287863 -30 36 C-27.36802207 39.24610611 -25.03578986 40.89933004 -21 42 C-16.99671378 42.31163306 -12.77937568 42.51175027 -9 41 C-7.74844235 38.8695627 -7.74844235 38.8695627 -8 35.625 C-8 32 -8 32 -7 28 C-10.96 28 -14.92 28 -19 28 C-19 25.69 -19 23.38 -19 21 C-12.4 21 -5.8 21 1 21 C1 28.92 1 36.84 1 45 C-7.96830638 50.1247465 -13.72933437 50.71275382 -24 50 C-26.58339327 49.23968426 -28.60341317 48.2527613 -31 47 C-31.99 47.495 -31.99 47.495 -33 48 C-33.061875 47.46375 -33.12375 46.9275 -33.1875 46.375 C-34.14995004 43.5616845 -35.8011374 41.84926641 -37.7265625 39.62890625 C-42.00687114 34.15378753 -43.44369647 27.34683883 -42.75 20.55078125 C-41.02693601 10.5047028 -37.31538982 4.01112517 -29 -2 C-19.86243903 -6.9030815 -8.65790003 -5.14794056 0 0 Z " fill="#0C0B0B" transform="translate(867,525)"/>
<path d="M0 0 C1.65 0.33 3.3 0.66 5 1 C5 8.59 5 16.18 5 24 C13.25 24.33 21.5 24.66 30 25 C30 17.41 30 9.82 30 2 C32.48411615 0.75794193 34.25199104 0.85907646 37 1 C38 2 38 2 38.12025452 3.98048401 C38.11803391 4.84874313 38.11581329 5.71700226 38.11352539 6.61157227 C38.11344986 7.59251358 38.11337433 8.5734549 38.11329651 9.5841217 C38.10813522 10.6507756 38.10297394 11.7174295 38.09765625 12.81640625 C38.0962413 13.9025975 38.09482635 14.98878876 38.09336853 16.1078949 C38.08775048 19.59279075 38.07519492 23.07762342 38.0625 26.5625 C38.05748733 28.91861887 38.05292402 31.27473874 38.04882812 33.63085938 C38.03777519 39.42059464 38.02101951 45.21029281 38 51 C38.99 51.495 38.99 51.495 40 52 C38 55 38 55 36.0546875 55.51171875 C35.33539062 55.56972656 34.61609375 55.62773438 33.875 55.6875 C31.956875 55.8421875 31.956875 55.8421875 30 56 C30 55.34 30 54.68 30 54 C29.34 54 28.68 54 28 54 C28.33 53.34 28.66 52.68 29 52 C29.15123831 50.4804236 29.24881693 48.95527498 29.31640625 47.4296875 C29.35451416 46.62257324 29.39262207 45.81545898 29.43188477 44.98388672 C29.47498779 43.9579541 29.51809082 42.93202148 29.5625 41.875 C29.706875 38.61625 29.85125 35.3575 30 32 C21.75 32 13.5 32 5 32 C5.07909306 39.15029823 5.07909306 39.15029823 5.18017578 46.30029297 C5.18766846 47.63278076 5.18766846 47.63278076 5.1953125 48.9921875 C5.20578613 49.90339355 5.21625977 50.81459961 5.22705078 51.75341797 C5 54 5 54 3 56 C1.02 55.67 -0.96 55.34 -3 55 C-3 37.51 -3 20.02 -3 2 C-2.01 2 -1.02 2 0 2 C0 1.34 0 0.68 0 0 Z " fill="#0B0B0B" transform="translate(584,520)"/>
<path d="M0 0 C1.02574883 0.00212242 1.02574883 0.00212242 2.07221985 0.00428772 C4.25261847 0.00987749 6.43291376 0.02242803 8.61328125 0.03515625 C10.09309747 0.04017258 11.57291531 0.04473525 13.05273438 0.04882812 C16.67711682 0.05984354 20.30143895 0.07710113 23.92578125 0.09765625 C24.30641346 2.42374195 24.6384807 4.75820889 24.92578125 7.09765625 C23.92578125 8.09765625 23.92578125 8.09765625 21.51733398 8.21118164 C20.47520752 8.20594482 19.43308105 8.20070801 18.359375 8.1953125 C17.23466797 8.19208984 16.10996094 8.18886719 14.95117188 8.18554688 C13.76716797 8.17716797 12.58316406 8.16878906 11.36328125 8.16015625 C10.17541016 8.15564453 8.98753906 8.15113281 7.76367188 8.14648438 C4.81765899 8.134653 1.87174444 8.11816912 -1.07421875 8.09765625 C-0.88859375 9.08765625 -0.70296875 10.07765625 -0.51171875 11.09765625 C-0.07421875 15.09765625 -0.07421875 15.09765625 -1.07421875 23.09765625 C6.18578125 23.09765625 13.44578125 23.09765625 20.92578125 23.09765625 C20.92578125 25.40765625 20.92578125 27.71765625 20.92578125 30.09765625 C17.82163423 30.12669202 14.71752216 30.14446695 11.61328125 30.16015625 C10.29166992 30.17272461 10.29166992 30.17272461 8.94335938 30.18554688 C8.09580078 30.18876953 7.24824219 30.19199219 6.375 30.1953125 C5.20457153 30.20316772 5.20457153 30.20316772 4.01049805 30.21118164 C1.92578125 30.09765625 1.92578125 30.09765625 -1.07421875 29.09765625 C-1.07421875 34.70765625 -1.07421875 40.31765625 -1.07421875 46.09765625 C7.17578125 46.09765625 15.42578125 46.09765625 23.92578125 46.09765625 C24.42078125 49.56265625 24.42078125 49.56265625 24.92578125 53.09765625 C20.26879309 55.51891902 16.36631422 55.18103404 11.30078125 54.78515625 C10.55699219 54.73681641 9.81320312 54.68847656 9.046875 54.63867188 C2.99601156 54.2301093 -3.03333023 53.64682793 -9.07421875 53.09765625 C-9.40421875 35.93765625 -9.73421875 18.77765625 -10.07421875 1.09765625 C-6.5359562 -0.0817646 -3.73273149 -0.01523564 0 0 Z " fill="#0A0A09" transform="translate(505.07421875,520.90234375)"/>
<path d="M0 0 C0 2.31 0 4.62 0 7 C-8.58 7 -17.16 7 -26 7 C-25.67 11.62 -25.34 16.24 -25 21 C-23.56785156 20.98839844 -22.13570312 20.97679687 -20.66015625 20.96484375 C-18.79427213 20.95546745 -16.92838661 20.94636708 -15.0625 20.9375 C-14.11697266 20.92912109 -13.17144531 20.92074219 -12.19726562 20.91210938 C-10.84858398 20.90727539 -10.84858398 20.90727539 -9.47265625 20.90234375 C-8.22367554 20.89448853 -8.22367554 20.89448853 -6.94946289 20.88647461 C-5 21 -5 21 -4 22 C-4 24.31 -4 26.62 -4 29 C-14.395 29.495 -14.395 29.495 -25 30 C-25.33 34.95 -25.66 39.9 -26 45 C-17.42 45 -8.84 45 0 45 C0 47.31 0 49.62 0 52 C-2.94839041 52.9827968 -4.94130972 53 -8 53 C-8.99 53.495 -8.99 53.495 -10 54 C-10.67675781 53.85433594 -11.35351562 53.70867188 -12.05078125 53.55859375 C-16.88931536 52.64215616 -21.76216111 52.99952897 -26.66992188 53.12695312 C-28.78016568 53.15647917 -30.89127613 53.08534815 -33 53 C-33.66 52.34 -34.32 51.68 -35 51 C-34.34 51 -33.68 51 -33 51 C-33.16226074 50.21987549 -33.32452148 49.43975098 -33.49169922 48.63598633 C-34.13848836 44.00936256 -34.14298545 39.48968141 -34.1328125 34.82421875 C-34.13376923 33.85845413 -34.13472595 32.89268951 -34.13571167 31.8976593 C-34.1363898 29.86626113 -34.1345612 27.83486076 -34.13037109 25.8034668 C-34.12498841 22.68077809 -34.13034342 19.55823131 -34.13671875 16.43554688 C-34.13605848 14.46093718 -34.13477837 12.48632758 -34.1328125 10.51171875 C-34.13483673 9.57325607 -34.13686096 8.6347934 -34.13894653 7.66789246 C-34.13579437 6.80642105 -34.13264221 5.94494965 -34.12939453 5.05737305 C-34.12859894 4.29603561 -34.12780334 3.53469818 -34.12698364 2.75028992 C-34 1 -34 1 -33 0 C-21.99071588 -1.55303381 -11.03525504 -0.76470317 0 0 Z " fill="#0A0A0A" transform="translate(928,522)"/>
<path d="M0 0 C2.875 1.8125 2.875 1.8125 4.375 4.25 C4.88796223 6.87893145 4.7964475 8.32459176 3.875 10.8125 C3.17375 10.52375 2.4725 10.235 1.75 9.9375 C0.80125 9.56625 -0.1475 9.195 -1.125 8.8125 C-2.0325 8.420625 -2.94 8.02875 -3.875 7.625 C-8.04077757 6.58355561 -11.98236688 6.57799533 -16.125 7.8125 C-18.41212771 10.68913806 -18.41212771 10.68913806 -18.30078125 14.24609375 C-17.52520082 17.78248908 -17.52520082 17.78248908 -15.41162109 19.03173828 C-13.07722293 20.1056555 -10.73360593 21.01420401 -8.3125 21.875 C-2.11828239 24.1376168 1.77919447 25.58026157 4.875 31.8125 C6.47861797 36.20574505 6.1841044 39.8326294 4.25 44.0625 C1.800631 48.28269659 -0.58748142 50.88851226 -5.28125 52.59765625 C-12.08505892 54.39549816 -17.63415355 53.36131824 -24.125 50.8125 C-25.115 50.1525 -26.105 49.4925 -27.125 48.8125 C-27.53343923 46.10046348 -27.25836867 43.5687858 -27.125 40.8125 C-26.1040625 41.245625 -26.1040625 41.245625 -25.0625 41.6875 C-18.48128164 44.20796661 -13.06268545 45.56458349 -6.125 43.8125 C-3.94168311 42.05113645 -3.94168311 42.05113645 -3.9296875 39.8671875 C-3.95289063 39.14789062 -3.97609375 38.42859375 -4 37.6875 C-4.04125 36.40875 -4.0825 35.13 -4.125 33.8125 C-5.61 33.3175 -5.61 33.3175 -7.125 32.8125 C-7.125 32.1525 -7.125 31.4925 -7.125 30.8125 C-7.7540625 30.66554688 -8.383125 30.51859375 -9.03125 30.3671875 C-15.77400171 28.6002616 -22.50519039 26.07075731 -26.32421875 19.86328125 C-28.1128802 15.2825629 -27.57155559 11.03465215 -25.9375 6.5625 C-20.21363375 -2.12198672 -9.44702782 -3.5276876 0 0 Z " fill="#0C0C0B" transform="translate(961.125,522.1875)"/>
<path d="M0 0 C3.25 1.8125 3.25 1.8125 4.75 4.5 C4.9975 5.6446875 4.9975 5.6446875 5.25 6.8125 C4.59 6.8125 3.93 6.8125 3.25 6.8125 C3.745 9.2875 3.745 9.2875 4.25 11.8125 C3.59 11.35875 2.93 10.905 2.25 10.4375 C-4.67751351 6.68509685 -11.12044682 6.20354661 -18.75 7.8125 C-22.94746795 9.48996911 -24.45784828 11.93955398 -26.75 15.8125 C-28.78889484 21.92918452 -28.94009869 29.96451956 -26.3125 35.9375 C-25.796875 36.88625 -25.28125 37.835 -24.75 38.8125 C-24.42 39.8025 -24.09 40.7925 -23.75 41.8125 C-17.03418968 44.88397768 -9.89910754 45.55461104 -2.75 43.8125 C0.15630368 42.3894016 0.15630368 42.3894016 2.25 40.8125 C2.91 40.8125 3.57 40.8125 4.25 40.8125 C4.5625 44.0625 4.5625 44.0625 4.25 47.8125 C1.07902023 51.2632721 -2.21466851 52.80464856 -6.75 53.8125 C-10.42359098 53.96472062 -14.0758508 53.93017738 -17.75 53.8125 C-17.75 53.1525 -17.75 52.4925 -17.75 51.8125 C-18.45125 51.73 -19.1525 51.6475 -19.875 51.5625 C-25.02200539 50.21980294 -29.47148519 46.96528543 -32.75 42.8125 C-37.31476188 34.95796146 -37.86065466 26.71688648 -36.75 17.8125 C-34.36347377 10.2812492 -30.0556886 4.64634363 -23.3125 0.5 C-16.32761711 -2.76049562 -7.24501314 -2.30042388 0 0 Z " fill="#0C0B0B" transform="translate(570.75,522.1875)"/>
<path d="M0 0 C0.8146875 0.00257813 1.629375 0.00515625 2.46875 0.0078125 C3.2834375 0.00523437 4.098125 0.00265625 4.9375 0 C6.96875 0.1328125 6.96875 0.1328125 7.96875 1.1328125 C8.06284479 3.15775481 8.08618122 5.1860112 8.08227539 7.21313477 C8.08219986 8.51440811 8.08212433 9.81568146 8.08204651 11.15638733 C8.07693909 12.58733152 8.07172308 14.01827532 8.06640625 15.44921875 C8.06454203 16.9051051 8.06311815 18.36099207 8.06211853 19.81687927 C8.05829365 23.65560629 8.04846364 27.49429569 8.03741455 31.33300781 C8.02719978 35.24739066 8.02262077 39.16177956 8.01757812 43.07617188 C8.00684134 50.76173593 7.98976529 58.44726895 7.96875 66.1328125 C1.56875 68.34819712 1.56875 68.34819712 -1.46875 67.2578125 C-2.2421875 66.7009375 -2.2421875 66.7009375 -3.03125 66.1328125 C-3.73567631 48.93107352 -4.23594829 31.78271517 -3.65625 14.5703125 C-3.63482941 13.89338348 -3.61340881 13.21645447 -3.59133911 12.51901245 C-3.18645595 0.2083452 -3.18645595 0.2083452 0 0 Z " fill="#0A0A0A" transform="translate(846.03125,430.8671875)"/>
<path d="M0 0 C1.50832397 0.24447876 1.50832397 0.24447876 3.04711914 0.49389648 C6.8380285 0.97926213 10.42753353 1.11404492 14.24609375 1.09765625 C14.90207047 1.0962413 15.55804718 1.09482635 16.23390198 1.09336853 C18.30181702 1.08783031 20.36961842 1.07529002 22.4375 1.0625 C23.85090988 1.05747699 25.26432148 1.0529155 26.67773438 1.04882812 C30.11852568 1.03788126 33.55925172 1.02066038 37 1 C38.24205807 3.48411615 38.14092354 5.25199104 38 8 C37.67 8.33 37.34 8.66 37 9 C32.05 9 27.1 9 22 9 C22.33 23.85 22.66 38.7 23 54 C19 56 19 56 14 55 C14 39.82 14 24.64 14 9 C9.38 9 4.76 9 0 9 C-1.125 2.25 -1.125 2.25 0 0 Z " fill="#0B090A" transform="translate(453,520)"/>
<path d="M0 0 C1.32 0.33 2.64 0.66 4 1 C5.59129983 16.32544142 4.64979587 31.64482376 4 47 C11.59 47 19.18 47 27 47 C27 49.31 27 51.62 27 54 C20.32754338 55.41536959 14.77789481 56.10911006 8 55 C6.00036972 54.96154557 3.99948367 54.95455719 2 55 C-1 55 -1 55 -4 54 C-5.16674099 36.66556236 -5.10516258 19.36315158 -5 2 C-3.35 2 -1.7 2 0 2 C0 1.34 0 0.68 0 0 Z " fill="#0D0D0D" transform="translate(741,520)"/>
<path d="M0 0 C0.33 0 0.66 0 1 0 C2.09633038 26.71722147 2.09633038 26.71722147 2.125 39.9375 C2.12951172 40.78723389 2.13402344 41.63696777 2.13867188 42.51245117 C2.12895555 46.47549729 1.98459229 50.13195886 1 54 C-0.65 54 -2.3 54 -4 54 C-4.33 54.66 -4.66 55.32 -5 56 C-7.75932242 52.8790173 -8.36151502 51.00473341 -8.2487793 46.86425781 C-8.22853195 45.84350159 -8.20828461 44.82274536 -8.18742371 43.77105713 C-8.13138725 42.12868073 -8.13138725 42.12868073 -8.07421875 40.453125 C-8.04777786 39.3267865 -8.02133698 38.200448 -7.99409485 37.03997803 C-7.90633054 33.44277969 -7.79717849 29.84659043 -7.6875 26.25 C-7.62424158 23.81123407 -7.56237552 21.37243159 -7.50195312 18.93359375 C-7.35078917 12.95521124 -7.18206193 6.97751702 -7 1 C-5.5459375 1.0309375 -5.5459375 1.0309375 -4.0625 1.0625 C-1.12534105 1.35618499 -1.12534105 1.35618499 0 0 Z " fill="#0B0B0B" transform="translate(883,520)"/>
<path d="M0 0 C1.04591309 -0.00209473 2.09182617 -0.00418945 3.16943359 -0.00634766 C4.28527832 -0.0016748 5.40112305 0.00299805 6.55078125 0.0078125 C7.6795166 0.01119629 8.80825195 0.01458008 9.97119141 0.01806641 C33.40751287 0.16230024 33.40751287 0.16230024 37.86328125 3.1328125 C32.38232756 3.15754605 26.90140642 3.17568846 21.42041016 3.18774414 C19.55614659 3.19277042 17.69188695 3.19959242 15.82763672 3.20825195 C13.14680001 3.22039213 10.46601545 3.22605789 7.78515625 3.23046875 C6.952724 3.23563004 6.12029175 3.24079132 5.26263428 3.24610901 C4.48212708 3.24618454 3.70161987 3.24626007 2.89746094 3.24633789 C2.21351257 3.2485585 1.52956421 3.25077911 0.82489014 3.25306702 C-1.13671875 3.1328125 -1.13671875 3.1328125 -5.13671875 2.1328125 C-5.13671875 37.4428125 -5.13671875 72.7528125 -5.13671875 109.1328125 C-5.79671875 108.8028125 -6.45671875 108.4728125 -7.13671875 108.1328125 C-7.13671875 72.8228125 -7.13671875 37.5128125 -7.13671875 1.1328125 C-4.60434465 -0.13337455 -2.83307467 0.00339436 0 0 Z " fill="#FD2C32" transform="translate(277.13671875,436.8671875)"/>
<path d="M0 0 C0.33 0 0.66 0 1 0 C1.144375 1.216875 1.28875 2.43375 1.4375 3.6875 C3.00042171 10.78763004 7.74029523 16.28404604 12 22 C13.36250299 23.84804951 14.7176016 25.70159977 16.0625 27.5625 C16.91521484 28.70912109 16.91521484 28.70912109 17.78515625 29.87890625 C19 32 19 32 19 36 C13.06 36 7.12 36 1 36 C1 41.61 1 47.22 1 53 C-1.10927345 48.7814531 -1.26983436 45.86689004 -1.1875 41.3125 C-1.18685547 40.62349609 -1.18621094 39.93449219 -1.18554688 39.22460938 C-1.14055525 34.14055525 -1.14055525 34.14055525 0 33 C2.69235776 32.76321284 5.36498156 32.57801975 8.0625 32.4375 C8.82111328 32.39431641 9.57972656 32.35113281 10.36132812 32.30664062 C12.24065438 32.20026367 14.12030244 32.09960066 16 32 C15.26394531 30.99839844 14.52789062 29.99679687 13.76953125 28.96484375 C12.7838305 27.62241321 11.79815476 26.27996431 10.8125 24.9375 C10.32974609 24.28072266 9.84699219 23.62394531 9.34960938 22.94726562 C8.3767793 21.62186626 7.40779901 20.29363286 6.44262695 18.96264648 C5.49300831 17.67072157 4.52306171 16.39345633 3.53198242 15.13305664 C0.74816736 11.51236799 -0.62746824 9.16103633 -0.3125 4.5625 C-0.26738281 3.69753906 -0.22226563 2.83257813 -0.17578125 1.94140625 C-0.11777344 1.30074219 -0.05976563 0.66007813 0 0 Z " fill="#FC2C32" transform="translate(213,516)"/>
<path d="M0 0 C1.36524893 4.09574678 -0.15171071 6.62980763 -1.7109375 10.44140625 C-2.14232529 11.52662819 -2.14232529 11.52662819 -2.58242798 12.6337738 C-3.50450134 14.94697525 -4.43965849 17.25463606 -5.375 19.5625 C-5.99823951 21.12140776 -6.62064564 22.68064898 -7.2421875 24.24023438 C-11.71265991 35.42531981 -11.71265991 35.42531981 -13 38 C-14.65 38 -16.3 38 -18 38 C-18 37.34 -18 36.68 -18 36 C-24.33238333 33.86623092 -30.68762857 31.81546581 -37.0625 29.8125 C-37.92810547 29.53986328 -38.79371094 29.26722656 -39.68554688 28.98632812 C-41.7901554 28.32355085 -43.89497438 27.66145111 -46 27 C-46 26.67 -46 26.34 -46 26 C-34.87077286 26.28805058 -23.31227359 29.86752715 -14 36 C-13.86198975 35.41299316 -13.72397949 34.82598633 -13.58178711 34.22119141 C-12.87493801 31.52252874 -11.88132883 28.95840319 -10.88720703 26.35449219 C-9.90178093 23.73934377 -8.96224831 21.1101855 -8.02734375 18.4765625 C-7.51397461 17.03990234 -7.51397461 17.03990234 -6.99023438 15.57421875 C-6.28054799 13.58604352 -5.57490286 11.5964217 -4.87304688 9.60546875 C-4.53208984 8.65542969 -4.19113281 7.70539063 -3.83984375 6.7265625 C-3.38146118 5.43613037 -3.38146118 5.43613037 -2.91381836 4.11962891 C-2 2 -2 2 0 0 Z " fill="#FC3035" transform="translate(199,410)"/>
<path d="M0 0 C2.14576637 -0.02685938 4.29162645 -0.04633088 6.4375 -0.0625 C7.63246094 -0.07410156 8.82742188 -0.08570313 10.05859375 -0.09765625 C13 0 13 0 14 1 C14.09346915 2.65738443 14.11744977 4.31874644 14.11352539 5.97875977 C14.11344986 7.03978409 14.11337433 8.10080841 14.11329651 9.19398499 C14.10813522 10.348134 14.10297394 11.50228302 14.09765625 12.69140625 C14.0962413 13.86638168 14.09482635 15.04135712 14.09336853 16.25193787 C14.08774992 20.02215064 14.07519426 23.79230504 14.0625 27.5625 C14.0574874 30.11132727 14.05292408 32.66015547 14.04882812 35.20898438 C14.03862331 41.47269709 14.01905152 47.73628284 14 54 C22.58 54 31.16 54 40 54 C40 54.33 40 54.66 40 55 C31.09 55 22.18 55 13 55 C13 37.51 13 20.02 13 2 C8.38 2.33 3.76 2.66 -1 3 C-0.67 2.01 -0.34 1.02 0 0 Z " fill="#262626" transform="translate(570,431)"/>
<path d="M0 0 C0.33 0 0.66 0 1 0 C3.46641739 16.28429794 0.98703444 36.93222734 -8 51 C-9 48 -9 48 -8.29296875 46.0546875 C-7.56389117 44.61714231 -6.83472646 43.17964132 -6.10546875 41.7421875 C-2.72186349 33.34893347 -2.46726851 24.50407106 -1.9375 15.5625 C-1.78374726 13.04273404 -1.62638731 10.52318473 -1.46484375 8.00390625 C-1.399021 6.89861572 -1.33319824 5.7933252 -1.26538086 4.65454102 C-1 2 -1 2 0 0 Z " fill="#F82C31" transform="translate(414,484)"/>
<path d="M0 0 C8.58 0 17.16 0 26 0 C25.04512414 4.77437929 23.47806684 8.30132032 21.1875 12.5 C20.84396484 13.15097656 20.50042969 13.80195312 20.14648438 14.47265625 C18.09065354 18.29117882 15.95059444 21.78341906 13 25 C12.34 25 11.68 25 11 25 C12.27897006 22.34277909 13.68398615 19.89353229 15.3125 17.4375 C18.43000081 12.52929187 20.67206772 7.32098808 23 2 C15.74 2 8.48 2 1 2 C0.67 1.34 0.34 0.68 0 0 Z " fill="#FC2429" transform="translate(173,550)"/>
<path d="M0 0 C6.08406594 0.82217107 9.42919339 6.47188832 13 11 C19.61760896 20.58371583 28.71604397 33.82725245 28 46 C26.00079282 43.00118923 24.96834144 40.37886693 23.75 37 C18.67605489 23.68089408 11.45350228 10.81038637 0 2 C0 1.34 0 0.68 0 0 Z " fill="#F92F34" transform="translate(383,416)"/>
<path d="M0 0 C0 0.33 0 0.66 0 1 C-23.38357828 2.49654901 -46.60677757 1.88712573 -70 1 C-70 0.67 -70 0.34 -70 0 C-21.89943001 -1.77992464 -21.89943001 -1.77992464 0 0 Z " fill="#FD2125" transform="translate(312,387)"/>
<path d="M0 0 C1.52798468 4.58395404 -0.47296886 7.51478031 -2.375 11.8046875 C-6.41675338 19.75217372 -11.63951387 25.17807238 -19 30.0625 C-19.56904053 30.44494873 -20.13808105 30.82739746 -20.72436523 31.22143555 C-25.20677997 34.00465929 -28.85382767 34.63322237 -34 35 C-32.5266721 32.0533442 -30.48154447 31.89294536 -27.4375 30.75 C-15.3236398 25.8354802 -8.15653868 18.51890948 -3.078125 6.55078125 C-2.72234375 5.70902344 -2.3665625 4.86726562 -2 4 C-1.34502282 2.6608857 -0.6827557 1.32516674 0 0 Z " fill="#FC3135" transform="translate(353,509)"/>
<path d="M0 0 C9.87639609 1.23273666 19.00676476 7.08364564 25.39453125 14.65234375 C29.35053655 19.92303359 33.85632825 26.14937399 33 33 C30.27185425 31.63592712 30.28492518 30.35127382 29.3125 27.5 C26.61151407 20.45922768 22.85921501 14.37684431 16 11 C15.38640625 10.36578125 14.7728125 9.7315625 14.140625 9.078125 C11.56652436 6.57918058 8.97961527 5.29459861 5.75 3.75 C4.67234375 3.22921875 3.5946875 2.7084375 2.484375 2.171875 C1.25460937 1.59179688 1.25460937 1.59179688 0 1 C0 0.67 0 0.34 0 0 Z " fill="#FD3036" transform="translate(320,441)"/>
<path d="M0 0 C-0.33 0.66 -0.66 1.32 -1 2 C-2.84741211 2.42651367 -2.84741211 2.42651367 -5.27734375 2.66796875 C-6.17541748 2.75723633 -7.07349121 2.84650391 -7.9987793 2.93847656 C-8.96855713 3.0206543 -9.93833496 3.10283203 -10.9375 3.1875 C-11.92210205 3.27354492 -12.9067041 3.35958984 -13.92114258 3.44824219 C-20.37406878 3.94913766 -26.72437098 4.09694608 -33.1875 3.75 C-33.93443115 3.71156982 -34.6813623 3.67313965 -35.45092773 3.63354492 C-39.07615588 3.37505334 -40.91363613 3.05757591 -44 1 C-39.18030588 0.85588827 -34.36056388 0.71354069 -29.54077148 0.57275391 C-27.90468983 0.52472393 -26.26862171 0.47623071 -24.63256836 0.42724609 C-22.26679932 0.35649682 -19.90098496 0.28747161 -17.53515625 0.21875 C-16.81602554 0.19687622 -16.09689484 0.17500244 -15.35597229 0.15246582 C-10.23551541 0.00602499 -5.12257065 -0.01765643 0 0 Z " fill="#FA2F34" transform="translate(145,596)"/>
<path d="M0 0 C0.33 0 0.66 0 1 0 C1 15.18 1 30.36 1 46 C0.34 45.67 -0.32 45.34 -1 45 C-0.98259766 43.80503906 -0.98259766 43.80503906 -0.96484375 42.5859375 C-0.91932011 37.24016189 -1.05365263 32.27250677 -2 27 C-1.505 25.515 -1.505 25.515 -1 24 C-0.92937547 22.23827112 -0.91577542 20.47394758 -0.9375 18.7109375 C-0.94523438 17.68742187 -0.95296875 16.66390625 -0.9609375 15.609375 C-0.97382813 14.54203125 -0.98671875 13.4746875 -1 12.375 C-1.02538535 10.25786219 -1.04646038 8.14066674 -1.0625 6.0234375 C-1.07410156 5.08419434 -1.08570313 4.14495117 -1.09765625 3.17724609 C-1 1 -1 1 0 0 Z " fill="#FA2F36" transform="translate(213,458)"/>
<path d="M0 0 C0.33 0.99 0.66 1.98 1 3 C-0.44921875 5.171875 -0.44921875 5.171875 -2.6875 7.75 C-3.50863281 8.71421875 -4.32976562 9.6784375 -5.17578125 10.671875 C-5.85374756 11.46368164 -5.85374756 11.46368164 -6.54541016 12.27148438 C-9.76190718 16.09370641 -12.82664081 20.0415586 -15.92456055 23.95996094 C-16.41093994 24.57129883 -16.89731934 25.18263672 -17.3984375 25.8125 C-17.82817871 26.35519531 -18.25791992 26.89789062 -18.70068359 27.45703125 C-20.0543753 29.06457195 -21.4940771 30.53531266 -23 32 C-23.66 31.67 -24.32 31.34 -25 31 C-24.35675781 30.25878906 -23.71351563 29.51757812 -23.05078125 28.75390625 C-15.73143505 20.24712022 -8.8758749 11.4360245 -2.13232422 2.46777344 C-1 1 -1 1 0 0 Z " fill="#FC2C31" transform="translate(197,517)"/>
<path d="M0 0 C6.18749435 0.3256576 11.085967 3.44704809 16 7 C18.21666876 10.32500313 18.77137913 12.03723828 19 16 C17.51868445 20.52191062 15.91156483 24.15522558 12 27 C9.75 26.75 9.75 26.75 8 26 C8.94875 25.443125 9.8975 24.88625 10.875 24.3125 C14.18265808 21.86483302 15.17185057 20.95671392 16 17 C15.93022926 13.34244606 15.93022926 13.34244606 15 10 C14.01 9.34 13.02 8.68 12 8 C12 7.34 12 6.68 12 6 C11.38511719 5.79503906 10.77023438 5.59007812 10.13671875 5.37890625 C6.7578125 4.25260417 3.37890625 3.12630208 0 2 C0 1.34 0 0.68 0 0 Z " fill="#FD3238" transform="translate(132,520)"/>
<path d="M0 0 C0.33 0 0.66 0 1 0 C1 21.45 1 42.9 1 65 C1.66 65 2.32 65 3 65 C3 65.99 3 66.98 3 68 C2.01 67.67 1.02 67.34 0 67 C-0.94858479 51.85132833 -0.98520252 36.85541509 -0.5625 21.6875 C-0.50907119 19.56707468 -0.4563337 17.44663182 -0.40429688 15.32617188 C-0.27745657 10.2172117 -0.141415 5.10857666 0 0 Z " fill="#2A2A2A" transform="translate(725,432)"/>
<path d="M0 0 C-1.53496558 4.64844185 -5.31500978 6.70360715 -9.1875 9.3125 C-9.89422852 9.79235352 -10.60095703 10.27220703 -11.32910156 10.76660156 C-16.13894039 13.95250547 -21.04099832 16.77041916 -26.25 19.25 C-26.8689917 19.54946533 -27.4879834 19.84893066 -28.12573242 20.1574707 C-30.74322522 21.33749685 -32.53970119 22.06236306 -35.421875 21.671875 C-36.20304687 21.33929687 -36.20304687 21.33929687 -37 21 C-35.98421875 20.5875 -34.9684375 20.175 -33.921875 19.75 C-25.73493104 16.34293034 -18.48537956 12.69318124 -11.2578125 7.50390625 C-9 6 -9 6 -7 6 C-7 5.34 -7 4.68 -7 4 C-2.52941176 0 -2.52941176 0 0 0 Z " fill="#FA3033" transform="translate(383,567)"/>
<path d="M0 0 C0.66 0.66 1.32 1.32 2 2 C0.78183594 2.10957031 -0.43632812 2.21914063 -1.69140625 2.33203125 C-3.31516288 2.49159115 -4.9388577 2.65178093 -6.5625 2.8125 C-7.36236328 2.88275391 -8.16222656 2.95300781 -8.98632812 3.02539062 C-15.56423723 3.69660584 -21.38453804 4.89869994 -26 10 C-26.66 10 -27.32 10 -28 10 C-26.28394928 6.17188686 -24.68154324 3.70088337 -20.72265625 2.05078125 C-13.85385809 0.14446282 -7.13278364 -0.88158 0 0 Z " fill="#FD3137" transform="translate(136,432)"/>
<path d="M0 0 C0.66 0 1.32 0 2 0 C2 9.57 2 19.14 2 29 C1.34 28.67 0.68 28.34 0 28 C-1.72246639 18.69868151 -1.22387352 9.33203561 0 0 Z " fill="#FB3338" transform="translate(46,439)"/>
<path d="M0 0 C0.99 0.33 1.98 0.66 3 1 C3 1.66 3 2.32 3 3 C3.79277344 3.37318359 3.79277344 3.37318359 4.6015625 3.75390625 C8.78530863 5.92754634 12.71758565 8.52565378 16.7109375 11.02734375 C19.74758491 12.8486109 22.81160415 14.46359777 26 16 C23.3230095 17.04833194 22.24235757 17.09465303 19.51953125 16.03125 C2.76081543 6.55157236 2.76081543 6.55157236 0 0 Z " fill="#FB3137" transform="translate(59,490)"/>
<path d="M0 0 C9.71458791 1.21432349 18.52962421 7.99042623 25 15 C24.67 15.66 24.34 16.32 24 17 C23.26136719 16.41992188 22.52273438 15.83984375 21.76171875 15.2421875 C15.75383786 10.61604288 9.88852936 6.60926152 3.08203125 3.19140625 C1 2 1 2 0 0 Z " fill="#F93439" transform="translate(357,398)"/>
<path d="M0 0 C3.3 0.99 6.6 1.98 10 3 C10 3.66 10 4.32 10 5 C10.6290625 5.18175781 11.258125 5.36351562 11.90625 5.55078125 C17.37061108 7.15552584 22.69219738 8.93585454 28 11 C28 11.33 28 11.66 28 12 C17.62743768 11.40158294 8.44920102 6.84944686 0 1 C0 0.67 0 0.34 0 0 Z " fill="#FB3135" transform="translate(46,580)"/>
<path d="M0 0 C0.99 0.33 1.98 0.66 3 1 C2.63648438 1.42667969 2.27296875 1.85335938 1.8984375 2.29296875 C-2.96125979 8.33643846 -5.89764801 14.93560812 -9 22 C-9.65614764 23.33854118 -10.31793507 24.67447759 -11 26 C-10.49776938 15.6205672 -6.2004724 8.1491923 0 0 Z " fill="#FB2F34" transform="translate(59,412)"/>
<path d="M0 0 C0.66 0.33 1.32 0.66 2 1 C0.87540455 3.8959906 -0.24974875 6.79176416 -1.375 9.6875 C-1.69210938 10.50412109 -2.00921875 11.32074219 -2.3359375 12.16210938 C-3.87248677 16.11552261 -5.41366503 20.06620975 -7 24 C-7.66 24 -8.32 24 -9 24 C-3.234375 3.234375 -3.234375 3.234375 0 0 Z " fill="#FB3034" transform="translate(50,552)"/>
<path d="M0 0 C4.41329829 0.57965709 8.05624428 1.71016372 12.125 3.5 C15.40046572 4.93353716 18.49511321 6.2621291 22 7 C21.67 7.99 21.34 8.98 21 10 C17.68307302 8.71950156 14.37231481 7.42375965 11.0625 6.125 C10.11697266 5.76019531 9.17144531 5.39539063 8.19726562 5.01953125 C7.29814453 4.66503906 6.39902344 4.31054688 5.47265625 3.9453125 C4.64000244 3.62062988 3.80734863 3.29594727 2.94946289 2.96142578 C1 2 1 2 0 0 Z " fill="#FB3036" transform="translate(66,533)"/>
<path d="M0 0 C2.87389816 0.34107802 3.85838623 0.84102713 5.81640625 3.0390625 C12.27181493 12.59942167 12.27181493 12.59942167 14 18 C13.5625 20.1953125 13.5625 20.1953125 13 22 C11.82845707 19.71070947 10.66261926 17.41881638 9.5 15.125 C9.16613281 14.47402344 8.83226562 13.82304687 8.48828125 13.15234375 C6 8.2265625 6 8.2265625 6 6 C5.34 6 4.68 6 4 6 C2.61061923 4.03852126 1.2739589 2.03833424 0 0 Z " fill="#FC2C31" transform="translate(194,490)"/>
<path d="M0 0 C-3.10184843 1.6801679 -6.32247676 2.85774668 -9.62890625 4.0703125 C-14.17061165 5.85108002 -18.57796471 7.94342844 -23 10 C-22.453125 8.203125 -22.453125 8.203125 -21 6 C-18.56112976 4.72805332 -16.30450589 3.71100414 -13.75 2.75 C-13.09386719 2.481875 -12.43773438 2.21375 -11.76171875 1.9375 C-7.70106864 0.35521885 -4.34591338 -0.29692576 0 0 Z " fill="#FA3236" transform="translate(101,389)"/>
<path d="M0 0 C1 3 1 3 -0.328125 5.77734375 C-0.96234375 6.82019531 -1.5965625 7.86304688 -2.25 8.9375 C-2.87390625 9.97777344 -3.4978125 11.01804687 -4.140625 12.08984375 C-7.25892435 16.9703753 -7.25892435 16.9703753 -9 19 C-9.66 19 -10.32 19 -11 19 C-9.68646916 16.28255776 -8.25065694 13.72953043 -6.625 11.1875 C-4.30368277 7.51609915 -2.12942134 3.78563793 0 0 Z " fill="#FB2D30" transform="translate(195,556)"/>
<path d="M0 0 C2.64 0 5.28 0 8 0 C8 0.66 8 1.32 8 2 C8.68707031 2.10957031 9.37414062 2.21914063 10.08203125 2.33203125 C10.98308594 2.49058594 11.88414062 2.64914062 12.8125 2.8125 C14.15248047 3.03873047 14.15248047 3.03873047 15.51953125 3.26953125 C18.18321256 4.05395393 19.25690322 4.88627799 21 7 C18.24846929 6.38120598 15.49891102 5.75523814 12.75 5.125 C11.97269531 4.95097656 11.19539062 4.77695312 10.39453125 4.59765625 C9.26337891 4.33662109 9.26337891 4.33662109 8.109375 4.0703125 C7.41811523 3.91320801 6.72685547 3.75610352 6.01464844 3.59423828 C3.85262875 2.95653155 1.98395915 2.06200166 0 1 C0 0.67 0 0.34 0 0 Z " fill="#FC2E32" transform="translate(136,464)"/>
<path d="M0 0 C0 3 0 3 -1.5390625 4.68359375 C-3.67533789 6.47982531 -5.81623992 8.26166391 -8 10 C-8.56976563 10.45503906 -9.13953125 10.91007813 -9.7265625 11.37890625 C-11.25 12.5 -11.25 12.5 -14 14 C-16.171875 13.59375 -16.171875 13.59375 -18 13 C-17.28714844 12.56429687 -16.57429687 12.12859375 -15.83984375 11.6796875 C-10.14263272 8.13714175 -4.95953879 4.5186909 0 0 Z " fill="#FB2E32" transform="translate(182,576)"/>
<path d="M0 0 C0.79051657 2.2849048 1.17619733 3.52618144 0.3190918 5.83105469 C-0.05046631 6.43852539 -0.42002441 7.04599609 -0.80078125 7.671875 C-1.20103516 8.33574219 -1.60128906 8.99960937 -2.01367188 9.68359375 C-2.44228516 10.36550781 -2.87089844 11.04742188 -3.3125 11.75 C-3.72951172 12.44738281 -4.14652344 13.14476562 -4.57617188 13.86328125 C-5.6522309 15.6172403 -6.81968479 17.3144344 -8 19 C-8.66 19 -9.32 19 -10 19 C-8.40376856 14.60616294 -6.21975667 10.71004193 -3.875 6.6875 C-3.50246094 6.04232422 -3.12992187 5.39714844 -2.74609375 4.73242188 C-1.83367787 3.15324055 -0.91724491 1.57638136 0 0 Z " fill="#FA2C31" transform="translate(404,536)"/>
<path d="M0 0 C0.33 0 0.66 0 1 0 C1.20302734 0.88751953 1.20302734 0.88751953 1.41015625 1.79296875 C3.16507845 8.23468917 5.2498506 10.63670507 11 14 C10.01 14.33 9.02 14.66 8 15 C3.71341011 12.67809714 0.97439906 10.49724231 -1 6 C-1.25 3.25 -1.25 3.25 -1 1 C-0.67 0.67 -0.34 0.34 0 0 Z " fill="#FD2C31" transform="translate(107,443)"/>
<path d="M0 0 C7.16707877 0.32577631 12.76927124 3.65443628 19 7 C16 8 16 8 14.23828125 7.328125 C13.60277344 6.97234375 12.96726563 6.6165625 12.3125 6.25 C8.30456637 4.1084696 4.27793404 2.52783359 0 1 C0 0.67 0 0.34 0 0 Z " fill="#FB2D31" transform="translate(182,392)"/>
<path d="M0 0 C0.66 0 1.32 0 2 0 C1.46848208 3.29541111 0.61636564 6.44328724 -0.375 9.625 C-0.60960937 10.38039063 -0.84421875 11.13578125 -1.0859375 11.9140625 C-2.06901628 14.15749868 -3.17194285 15.39662027 -5 17 C-4.46246904 10.81839396 -2.45417612 5.673142 0 0 Z " fill="#FC2F34" transform="translate(57,533)"/>
<path d="M0 0 C4.95 0 9.9 0 15 0 C15.33 0.99 15.66 1.98 16 3 C10.21408489 3.10477512 4.70690634 2.99250545 -1 2 C-0.67 1.34 -0.34 0.68 0 0 Z " fill="#FC2A30" transform="translate(225,386)"/>
<path d="M0 0 C1.0703125 1.78125 1.0703125 1.78125 2 4 C0.54780041 8.51795427 -1.10292897 12.16576653 -5 15 C-7.25 14.75 -7.25 14.75 -9 14 C-8.071875 13.54625 -7.14375 13.0925 -6.1875 12.625 C-1.70056851 9.71857157 -1.07744488 4.95246592 0 0 Z " fill="#FC292F" transform="translate(149,532)"/>
<path d="M0 0 C0.80179688 0.00451172 1.60359375 0.00902344 2.4296875 0.01367188 C4.41149006 0.02546832 6.39325433 0.04340395 8.375 0.0625 C6.98828125 1.5859375 6.98828125 1.5859375 5.375 3.0625 C3.5625 2.6875 3.5625 2.6875 1.375 2.0625 C-0.62712229 2.38283957 -2.62739695 2.71509077 -4.625 3.0625 C-5.285 2.7325 -5.945 2.4025 -6.625 2.0625 C-7.95360925 1.71080932 -9.28658328 1.37479724 -10.625 1.0625 C-7.31505287 -0.59247356 -3.63377 -0.03834335 0 0 Z " fill="#1D1D1D" transform="translate(599.625,495.9375)"/>
<path d="M0 0 C2.0625 0.4375 2.0625 0.4375 4 1 C-1.24882694 4.17692157 -6.01488629 4.65697965 -12 5 C-9.68789868 2.68789868 -8.58208523 2.53815111 -5.4375 1.9375 C-2.4322803 1.53522134 -2.4322803 1.53522134 0 0 Z " fill="#FC3237" transform="translate(158,591)"/>
<path d="M0 0 C0.99 0.33 1.98 0.66 3 1 C1.58367866 2.10460959 0.16692736 3.20866788 -1.25 4.3125 C-2.03890625 4.92738281 -2.8278125 5.54226563 -3.640625 6.17578125 C-5.7462297 7.80379018 -7.86609343 9.40935863 -10 11 C-9.63602389 8.16977199 -9.09235225 7.09216828 -7.0390625 5.04296875 C-6.24242188 4.43066406 -5.44578125 3.81835938 -4.625 3.1875 C-3.83351563 2.56230469 -3.04203125 1.93710937 -2.2265625 1.29296875 C-1.49179688 0.86628906 -0.75703125 0.43960937 0 0 Z " fill="#FB3134" transform="translate(74,399)"/>
<path d="M0 0 C3.37774562 0.61482561 5.47618303 1.85695846 8.1875 3.9375 C8.88230469 4.46214844 9.57710937 4.98679687 10.29296875 5.52734375 C12 7 12 7 13 9 C7.97290493 7.42903279 3.97133531 4.38006951 0 1 C0 0.67 0 0.34 0 0 Z " fill="#FC2C31" transform="translate(181,480)"/>
<path d="M0 0 C4.56454251 0.54339792 7.9728176 1.79463821 12 4 C12 4.66 12 5.32 12 6 C10.55903414 5.57405412 9.12231288 5.13373367 7.6875 4.6875 C6.88699219 4.44386719 6.08648437 4.20023437 5.26171875 3.94921875 C2.90035427 2.95817977 1.66120007 1.91925057 0 0 Z " fill="#FD3034" transform="translate(168,474)"/>
<path d="M0 0 C4.51617599 -0.07654536 8.59085217 -0.10228696 13 1 C13 1.66 13 2.32 13 3 C11.58249437 2.88490339 10.16598831 2.75746342 8.75 2.625 C7.96109375 2.55539062 7.1721875 2.48578125 6.359375 2.4140625 C3.914123 1.98492887 2.15163097 1.21399362 0 0 Z " fill="#FB3034" transform="translate(161,387)"/>
<path d="M0 0 C4.37859255 0.50522222 6.81651224 3.17827222 10 6 C9.67 6.66 9.34 7.32 9 8 C7.49712782 6.85793642 5.99776716 5.71125043 4.5 4.5625 C3.6646875 3.92441406 2.829375 3.28632813 1.96875 2.62890625 C1.3190625 2.09136719 0.669375 1.55382812 0 1 C0 0.67 0 0.34 0 0 Z " fill="#FB2E30" transform="translate(372,407)"/>
<path d="M0 0 C0.66 0.33 1.32 0.66 2 1 C-0.64 3.64 -3.28 6.28 -6 9 C-6 6 -6 6 -3.5625 3.375 C-2.716875 2.59125 -1.87125 1.8075 -1 1 C-0.67 0.67 -0.34 0.34 0 0 Z " fill="#191818" transform="translate(545,524)"/>
<path d="M0 0 C-2 2 -2 2 -5.625 2.125 C-6.73875 2.08375 -7.8525 2.0425 -9 2 C-9 1.34 -9 0.68 -9 0 C-5.52176885 -1.15941038 -3.54104422 -0.70820884 0 0 Z " fill="#FC292F" transform="translate(223,387)"/>
<path d="M0 0 C0.66 0.99 1.32 1.98 2 3 C-1.69541586 3.95024979 -4.30458414 3.95024979 -8 3 C-8 2.67 -8 2.34 -8 2 C-5.36 2 -2.72 2 0 2 C0 1.34 0 0.68 0 0 Z " fill="#1F1E1F" transform="translate(963,494)"/>
<path d="M0 0 C0.99 0.495 0.99 0.495 2 1 C1.01 2.485 1.01 2.485 0 4 C0 2.68 0 1.36 0 0 Z " fill="#323232" transform="translate(855,433)"/>
<path d="M0 0 C0.66 0.66 1.32 1.32 2 2 C1.01 2.495 1.01 2.495 0 3 C0 2.01 0 1.02 0 0 Z " fill="#323231" transform="translate(651,555)"/>
<path d="M0 0 C1 4 1 4 1 4 Z " fill="#4C3E3F" transform="translate(465,545)"/>
<path d="M0 0 C0.99 0.33 1.98 0.66 3 1 C2.01 1 1.02 1 0 1 C0 0.67 0 0.34 0 0 Z " fill="#242423" transform="translate(657,445)"/>
<path d="M0 0 C4 1 4 1 4 1 Z " fill="#ED515B" transform="translate(348,392)"/>
<path d="M0 0 C3 1 3 1 3 1 Z " fill="#F24E56" transform="translate(140,599)"/>
<path d="M0 0 C3 1 3 1 3 1 Z " fill="#3D3A3A" transform="translate(636,575)"/>
<path d="M0 0 C0.66 0 1.32 0 2 0 C1.67 0.66 1.34 1.32 1 2 C0.67 1.34 0.34 0.68 0 0 Z " fill="#3B3B39" transform="translate(576,570)"/>
<path d="M0 0 C3 1 3 1 3 1 Z " fill="#FE4A52" transform="translate(225,547)"/>
<path d="" fill="#303130" transform="translate(0,0)"/>
<path d="" fill="#323231" transform="translate(0,0)"/>
<path d="M0 0 C0.99 0.495 0.99 0.495 2 1 C1.01 1.495 1.01 1.495 0 2 C0 1.34 0 0.68 0 0 Z " fill="#313132" transform="translate(892,526)"/>
<path d="M0 0 C0.66 0.66 1.32 1.32 2 2 C1.34 2 0.68 2 0 2 C0 1.34 0 0.68 0 0 Z " fill="#2D2B2B" transform="translate(569,498)"/>
<path d="" fill="#F84B54" transform="translate(0,0)"/>
<path d="M0 0 C0.66 0 1.32 0 2 0 C1.67 0.66 1.34 1.32 1 2 C0.67 1.34 0.34 0.68 0 0 Z " fill="#272829" transform="translate(760,480)"/>
<path d="M0 0 C0.99 0.495 0.99 0.495 2 1 C1.01 1.495 1.01 1.495 0 2 C0 1.34 0 0.68 0 0 Z " fill="#232222" transform="translate(681,469)"/>
<path d="" fill="#222324" transform="translate(0,0)"/>
<path d="" fill="#242222" transform="translate(0,0)"/>
<path d="M0 0 C3 1 3 1 3 1 Z " fill="#FD4852" transform="translate(137,436)"/>
<path d="M0 0 C2 1 2 1 2 1 Z " fill="#F44F58" transform="translate(321,597)"/>
<path d="M0 0 C2 1 2 1 2 1 Z " fill="#F35158" transform="translate(154,596)"/>
<path d="M0 0 C2 1 2 1 2 1 Z " fill="#3F3A3C" transform="translate(834,575)"/>
<path d="" fill="#3C3B3A" transform="translate(0,0)"/>
<path d="M0 0 C2 1 2 1 2 1 Z " fill="#403E40" transform="translate(676,575)"/>
<path d="" fill="#EF545C" transform="translate(0,0)"/>
<path d="" fill="#3C3D3D" transform="translate(0,0)"/>
<path d="M0 0 C2 1 2 1 2 1 Z " fill="#3C3B3A" transform="translate(718,572)"/>
<path d="" fill="#574547" transform="translate(0,0)"/>
<path d="" fill="#393737" transform="translate(0,0)"/>
<path d="" fill="#574446" transform="translate(0,0)"/>
<path d="" fill="#323231" transform="translate(0,0)"/>
<path d="M0 0 C2 1 2 1 2 1 Z " fill="#353535" transform="translate(864,544)"/>
<path d="M0 0 C2 1 2 1 2 1 Z " fill="#FB4D52" transform="translate(139,544)"/>
<path d="M0 0 C2 1 2 1 2 1 Z " fill="#F74C55" transform="translate(109,544)"/>
<path d="M0 0 C2 1 2 1 2 1 Z " fill="#312F31" transform="translate(873,537)"/>
<path d="M0 0 C2 1 2 1 2 1 Z " fill="#323331" transform="translate(820,537)"/>
<path d="M0 0 C2 1 2 1 2 1 Z " fill="#353333" transform="translate(532,537)"/>
<path d="" fill="#2D2E2D" transform="translate(0,0)"/>
<path d="M0 0 C2 1 2 1 2 1 Z " fill="#333431" transform="translate(804,534)"/>
<path d="" fill="#313131" transform="translate(0,0)"/>
<path d="" fill="#F64953" transform="translate(0,0)"/>
<path d="M0 0 C2 1 2 1 2 1 Z " fill="#313031" transform="translate(713,532)"/>
<path d="M0 0 C2 1 2 1 2 1 Z " fill="#F84B54" transform="translate(336,532)"/>
<path d="" fill="#333232" transform="translate(0,0)"/>
<path d="M0 0 C2 1 2 1 2 1 Z " fill="#46393D" transform="translate(464,530)"/>
<path d="" fill="#7C5054" transform="translate(0,0)"/>
<path d="M0 0 C2 1 2 1 2 1 Z " fill="#323334" transform="translate(940,521)"/>
<path d="M0 0 C2 1 2 1 2 1 Z " fill="#31312F" transform="translate(581,520)"/>
<path d="M0 0 C2 1 2 1 2 1 Z " fill="#333131" transform="translate(520,520)"/>
<path d="M0 0 C2 1 2 1 2 1 Z " fill="#2D2D2C" transform="translate(632,499)"/>
<path d="" fill="#F94B57" transform="translate(0,0)"/>
<path d="" fill="#2E302D" transform="translate(0,0)"/>
<path d="M0 0 C2 1 2 1 2 1 Z " fill="#232321" transform="translate(685,483)"/>
<path d="M0 0 C2 1 2 1 2 1 Z " fill="#2C2829" transform="translate(460,480)"/>
<path d="" fill="#211F20" transform="translate(0,0)"/>
<path d="" fill="#282929" transform="translate(0,0)"/>
<path d="" fill="#232422" transform="translate(0,0)"/>
<path d="M0 0 C2 1 2 1 2 1 Z " fill="#292A28" transform="translate(824,469)"/>
<path d="M0 0 C2 1 2 1 2 1 Z " fill="#2D2728" transform="translate(465,469)"/>
<path d="M0 0 C2 1 2 1 2 1 Z " fill="#F64F55" transform="translate(148,465)"/>
<path d="M0 0 C2 1 2 1 2 1 Z " fill="#FA4C54" transform="translate(132,460)"/>
<path d="M0 0 C2 1 2 1 2 1 Z " fill="#232323" transform="translate(695,456)"/>
<path d="M0 0 C2 1 2 1 2 1 Z " fill="#1E1E1F" transform="translate(639,456)"/>
<path d="" fill="#282928" transform="translate(0,0)"/>
<path d="" fill="#FD4C57" transform="translate(0,0)"/>
<path d="" fill="#282828" transform="translate(0,0)"/>
<path d="M0 0 C2 1 2 1 2 1 Z " fill="#2A2728" transform="translate(482,445)"/>
<path d="M0 0 C2 1 2 1 2 1 Z " fill="#FC484F" transform="translate(324,445)"/>
<path d="M0 0 C2 1 2 1 2 1 Z " fill="#2B2D2C" transform="translate(935,443)"/>
<path d="M0 0 C2 1 2 1 2 1 Z " fill="#2E2D2C" transform="translate(815,443)"/>
<path d="M0 0 C2 1 2 1 2 1 Z " fill="#FA4B54" transform="translate(319,443)"/>
<path d="M0 0 C2 1 2 1 2 1 Z " fill="#383A38" transform="translate(840,433)"/>
<path d="" fill="#F35059" transform="translate(0,0)"/>
<path d="M0 0 C2 1 2 1 2 1 Z " fill="#EC4F58" transform="translate(190,392)"/>
<path d="M0 0 C2 1 2 1 2 1 Z " fill="#EF545B" transform="translate(177,387)"/>
<path d="M0 0 C2 1 2 1 2 1 Z " fill="#EF535B" transform="translate(171,386)"/>
<path d="M0 0 C2 1 2 1 2 1 Z " fill="#F05057" transform="translate(315,385)"/>
<path d="M0 0 C2 1 2 1 2 1 Z " fill="#ED4E56" transform="translate(158,384)"/>
<path d="M0 0 C2 1 2 1 2 1 Z " fill="#F05056" transform="translate(108,384)"/>
<path d="" fill="#696969" transform="translate(0,0)"/>
<path d="" fill="#F55157" transform="translate(0,0)"/>
<path d="" fill="#F54D57" transform="translate(0,0)"/>
<path d="" fill="#F54E57" transform="translate(0,0)"/>
<path d="" fill="#F24F59" transform="translate(0,0)"/>
<path d="" fill="#F14D54" transform="translate(0,0)"/>
<path d="" fill="#F44F58" transform="translate(0,0)"/>
<path d="" fill="#F14C57" transform="translate(0,0)"/>
<path d="" fill="#F34D56" transform="translate(0,0)"/>
<path d="" fill="#F55255" transform="translate(0,0)"/>
<path d="" fill="#EE535A" transform="translate(0,0)"/>
<path d="" fill="#F1535C" transform="translate(0,0)"/>
<path d="" fill="#F85058" transform="translate(0,0)"/>
<path d="" fill="#F44D51" transform="translate(0,0)"/>
<path d="" fill="#EE515B" transform="translate(0,0)"/>
<path d="" fill="#FC4D56" transform="translate(0,0)"/>
<path d="" fill="#F0535B" transform="translate(0,0)"/>
<path d="" fill="#434444" transform="translate(0,0)"/>
<path d="" fill="#3F3D3D" transform="translate(0,0)"/>
<path d="" fill="#3E3D3C" transform="translate(0,0)"/>
<path d="" fill="#3A3937" transform="translate(0,0)"/>
<path d="" fill="#3B3C40" transform="translate(0,0)"/>
<path d="" fill="#413E3D" transform="translate(0,0)"/>
<path d="" fill="#4F4747" transform="translate(0,0)"/>
<path d="" fill="#EA545D" transform="translate(0,0)"/>
<path d="" fill="#F15359" transform="translate(0,0)"/>
<path d="" fill="#3A3C3C" transform="translate(0,0)"/>
<path d="" fill="#3D3D3B" transform="translate(0,0)"/>
<path d="" fill="#3D3939" transform="translate(0,0)"/>
<path d="" fill="#3D3E3B" transform="translate(0,0)"/>
<path d="" fill="#F74E58" transform="translate(0,0)"/>
<path d="" fill="#F84F57" transform="translate(0,0)"/>
<path d="" fill="#3B3C3B" transform="translate(0,0)"/>
<path d="" fill="#3F3D3E" transform="translate(0,0)"/>
<path d="" fill="#383835" transform="translate(0,0)"/>
<path d="" fill="#3A3639" transform="translate(0,0)"/>
<path d="" fill="#F0555D" transform="translate(0,0)"/>
<path d="" fill="#3B3A3A" transform="translate(0,0)"/>
<path d="" fill="#5D4D4B" transform="translate(0,0)"/>
<path d="" fill="#EE5560" transform="translate(0,0)"/>
<path d="" fill="#393836" transform="translate(0,0)"/>
<path d="" fill="#393936" transform="translate(0,0)"/>
<path d="" fill="#393937" transform="translate(0,0)"/>
<path d="" fill="#343333" transform="translate(0,0)"/>
<path d="" fill="#3C3C3B" transform="translate(0,0)"/>
<path d="" fill="#FC4B55" transform="translate(0,0)"/>
<path d="" fill="#353436" transform="translate(0,0)"/>
<path d="" fill="#EA555E" transform="translate(0,0)"/>
<path d="" fill="#3A3937" transform="translate(0,0)"/>
<path d="" fill="#EE525B" transform="translate(0,0)"/>
<path d="" fill="#F4545D" transform="translate(0,0)"/>
<path d="" fill="#373535" transform="translate(0,0)"/>
<path d="" fill="#3E3B3A" transform="translate(0,0)"/>
<path d="" fill="#3E3B3D" transform="translate(0,0)"/>
<path d="" fill="#3A3936" transform="translate(0,0)"/>
<path d="" fill="#383739" transform="translate(0,0)"/>
<path d="" fill="#31352F" transform="translate(0,0)"/>
<path d="" fill="#363736" transform="translate(0,0)"/>
<path d="" fill="#343131" transform="translate(0,0)"/>
<path d="" fill="#363735" transform="translate(0,0)"/>
<path d="" fill="#353234" transform="translate(0,0)"/>
<path d="" fill="#393737" transform="translate(0,0)"/>
<path d="" fill="#313430" transform="translate(0,0)"/>
<path d="" fill="#333132" transform="translate(0,0)"/>
<path d="" fill="#2F3231" transform="translate(0,0)"/>
<path d="" fill="#3A3838" transform="translate(0,0)"/>
<path d="" fill="#393A36" transform="translate(0,0)"/>
<path d="" fill="#F74D53" transform="translate(0,0)"/>
<path d="" fill="#313331" transform="translate(0,0)"/>
<path d="" fill="#323731" transform="translate(0,0)"/>
<path d="" fill="#343437" transform="translate(0,0)"/>
<path d="" fill="#353536" transform="translate(0,0)"/>
<path d="" fill="#383436" transform="translate(0,0)"/>
<path d="" fill="#373636" transform="translate(0,0)"/>
<path d="" fill="#373536" transform="translate(0,0)"/>
<path d="" fill="#353635" transform="translate(0,0)"/>
<path d="" fill="#333130" transform="translate(0,0)"/>
<path d="" fill="#313431" transform="translate(0,0)"/>
<path d="" fill="#323232" transform="translate(0,0)"/>
<path d="" fill="#F84D53" transform="translate(0,0)"/>
<path d="" fill="#2F3330" transform="translate(0,0)"/>
<path d="" fill="#343333" transform="translate(0,0)"/>
<path d="" fill="#FC4A54" transform="translate(0,0)"/>
<path d="" fill="#322B2F" transform="translate(0,0)"/>
<path d="" fill="#343633" transform="translate(0,0)"/>
<path d="" fill="#F64A53" transform="translate(0,0)"/>
<path d="" fill="#323233" transform="translate(0,0)"/>
<path d="" fill="#313132" transform="translate(0,0)"/>
<path d="" fill="#363336" transform="translate(0,0)"/>
<path d="" fill="#333232" transform="translate(0,0)"/>
<path d="" fill="#EB4D57" transform="translate(0,0)"/>
<path d="" fill="#2F2F2D" transform="translate(0,0)"/>
<path d="" fill="#343431" transform="translate(0,0)"/>
<path d="" fill="#2E3030" transform="translate(0,0)"/>
<path d="" fill="#F5515B" transform="translate(0,0)"/>
<path d="" fill="#31312E" transform="translate(0,0)"/>
<path d="" fill="#332F30" transform="translate(0,0)"/>
<path d="" fill="#313231" transform="translate(0,0)"/>
<path d="" fill="#2D2B2D" transform="translate(0,0)"/>
<path d="" fill="#FC4952" transform="translate(0,0)"/>
<path d="" fill="#FC4A54" transform="translate(0,0)"/>
<path d="" fill="#FB4C54" transform="translate(0,0)"/>
<path d="" fill="#2F2D2F" transform="translate(0,0)"/>
<path d="" fill="#FA4B52" transform="translate(0,0)"/>
<path d="" fill="#F94B54" transform="translate(0,0)"/>
<path d="" fill="#F5515B" transform="translate(0,0)"/>
<path d="" fill="#333334" transform="translate(0,0)"/>
<path d="" fill="#32322F" transform="translate(0,0)"/>
<path d="" fill="#F94C51" transform="translate(0,0)"/>
<path d="" fill="#333233" transform="translate(0,0)"/>
<path d="" fill="#333330" transform="translate(0,0)"/>
<path d="" fill="#33342F" transform="translate(0,0)"/>
<path d="" fill="#323131" transform="translate(0,0)"/>
<path d="" fill="#F74D56" transform="translate(0,0)"/>
<path d="" fill="#F94C54" transform="translate(0,0)"/>
<path d="" fill="#F94C52" transform="translate(0,0)"/>
<path d="" fill="#302F31" transform="translate(0,0)"/>
<path d="" fill="#383634" transform="translate(0,0)"/>
<path d="" fill="#302F2E" transform="translate(0,0)"/>
<path d="" fill="#2F2F2E" transform="translate(0,0)"/>
<path d="" fill="#2F3132" transform="translate(0,0)"/>
<path d="" fill="#FC4E55" transform="translate(0,0)"/>
<path d="" fill="#323034" transform="translate(0,0)"/>
<path d="" fill="#2F2E2E" transform="translate(0,0)"/>
<path d="" fill="#4A3A3C" transform="translate(0,0)"/>
<path d="" fill="#FD4C58" transform="translate(0,0)"/>
<path d="" fill="#F74C55" transform="translate(0,0)"/>
<path d="" fill="#FA4E56" transform="translate(0,0)"/>
<path d="" fill="#333132" transform="translate(0,0)"/>
<path d="" fill="#48393A" transform="translate(0,0)"/>
<path d="" fill="#353533" transform="translate(0,0)"/>
<path d="" fill="#FC4C56" transform="translate(0,0)"/>
<path d="" fill="#F44E57" transform="translate(0,0)"/>
<path d="" fill="#2F3133" transform="translate(0,0)"/>
<path d="" fill="#323130" transform="translate(0,0)"/>
<path d="" fill="#333433" transform="translate(0,0)"/>
<path d="" fill="#353532" transform="translate(0,0)"/>
<path d="" fill="#343030" transform="translate(0,0)"/>
<path d="" fill="#2F3131" transform="translate(0,0)"/>
<path d="" fill="#F74952" transform="translate(0,0)"/>
<path d="" fill="#333133" transform="translate(0,0)"/>
<path d="" fill="#443A3A" transform="translate(0,0)"/>
<path d="" fill="#F84C55" transform="translate(0,0)"/>
<path d="" fill="#343333" transform="translate(0,0)"/>
<path d="" fill="#333734" transform="translate(0,0)"/>
<path d="" fill="#322F2F" transform="translate(0,0)"/>
<path d="" fill="#303130" transform="translate(0,0)"/>
<path d="" fill="#31302F" transform="translate(0,0)"/>
<path d="" fill="#323231" transform="translate(0,0)"/>
<path d="" fill="#313231" transform="translate(0,0)"/>
<path d="" fill="#333233" transform="translate(0,0)"/>
<path d="" fill="#2D2E2E" transform="translate(0,0)"/>
<path d="" fill="#3A3234" transform="translate(0,0)"/>
<path d="" fill="#373231" transform="translate(0,0)"/>
<path d="" fill="#30312F" transform="translate(0,0)"/>
<path d="" fill="#2C2D2C" transform="translate(0,0)"/>
<path d="" fill="#FC4851" transform="translate(0,0)"/>
<path d="" fill="#323133" transform="translate(0,0)"/>
<path d="" fill="#343636" transform="translate(0,0)"/>
<path d="" fill="#333332" transform="translate(0,0)"/>
<path d="" fill="#323433" transform="translate(0,0)"/>
<path d="" fill="#373433" transform="translate(0,0)"/>
<path d="" fill="#F84B54" transform="translate(0,0)"/>
<path d="" fill="#FA4B53" transform="translate(0,0)"/>
<path d="" fill="#303132" transform="translate(0,0)"/>
<path d="" fill="#353631" transform="translate(0,0)"/>
<path d="" fill="#363333" transform="translate(0,0)"/>
<path d="" fill="#313133" transform="translate(0,0)"/>
<path d="" fill="#2F2F31" transform="translate(0,0)"/>
<path d="" fill="#333030" transform="translate(0,0)"/>
<path d="" fill="#EB535C" transform="translate(0,0)"/>
<path d="" fill="#2E2E30" transform="translate(0,0)"/>
<path d="" fill="#323131" transform="translate(0,0)"/>
<path d="" fill="#FA4E57" transform="translate(0,0)"/>
<path d="" fill="#EC515A" transform="translate(0,0)"/>
<path d="" fill="#333435" transform="translate(0,0)"/>
<path d="" fill="#322D30" transform="translate(0,0)"/>
<path d="" fill="#F44A54" transform="translate(0,0)"/>
<path d="" fill="#FA4C55" transform="translate(0,0)"/>
<path d="" fill="#42433E" transform="translate(0,0)"/>
<path d="" fill="#353333" transform="translate(0,0)"/>
<path d="" fill="#2F2F2F" transform="translate(0,0)"/>
<path d="" fill="#F74851" transform="translate(0,0)"/>
<path d="" fill="#323334" transform="translate(0,0)"/>
<path d="" fill="#312F2E" transform="translate(0,0)"/>
<path d="" fill="#FD4C55" transform="translate(0,0)"/>
<path d="" fill="#DF545D" transform="translate(0,0)"/>
<path d="" fill="#FC4A55" transform="translate(0,0)"/>
<path d="" fill="#323334" transform="translate(0,0)"/>
<path d="" fill="#333234" transform="translate(0,0)"/>
<path d="" fill="#313031" transform="translate(0,0)"/>
<path d="" fill="#322D31" transform="translate(0,0)"/>
<path d="" fill="#2F3230" transform="translate(0,0)"/>
<path d="" fill="#333133" transform="translate(0,0)"/>
<path d="" fill="#F74B54" transform="translate(0,0)"/>
<path d="" fill="#333433" transform="translate(0,0)"/>
<path d="" fill="#343333" transform="translate(0,0)"/>
<path d="" fill="#323232" transform="translate(0,0)"/>
<path d="" fill="#352F34" transform="translate(0,0)"/>
<path d="" fill="#313035" transform="translate(0,0)"/>
<path d="" fill="#313033" transform="translate(0,0)"/>
<path d="" fill="#343432" transform="translate(0,0)"/>
<path d="" fill="#2F2C2D" transform="translate(0,0)"/>
<path d="" fill="#302F31" transform="translate(0,0)"/>
<path d="" fill="#292C2E" transform="translate(0,0)"/>
<path d="" fill="#333233" transform="translate(0,0)"/>
<path d="" fill="#333232" transform="translate(0,0)"/>
<path d="" fill="#303033" transform="translate(0,0)"/>
<path d="" fill="#7D4E52" transform="translate(0,0)"/>
<path d="" fill="#E6545E" transform="translate(0,0)"/>
<path d="" fill="#FB4B54" transform="translate(0,0)"/>
<path d="" fill="#F44952" transform="translate(0,0)"/>
<path d="" fill="#2D2D2D" transform="translate(0,0)"/>
<path d="" fill="#FC4E55" transform="translate(0,0)"/>
<path d="" fill="#373838" transform="translate(0,0)"/>
<path d="" fill="#2D2B2A" transform="translate(0,0)"/>
<path d="" fill="#F94E59" transform="translate(0,0)"/>
<path d="" fill="#323234" transform="translate(0,0)"/>
<path d="" fill="#2C2D2C" transform="translate(0,0)"/>
<path d="" fill="#2E2E2F" transform="translate(0,0)"/>
<path d="" fill="#333532" transform="translate(0,0)"/>
<path d="" fill="#2B2C28" transform="translate(0,0)"/>
<path d="" fill="#302D2D" transform="translate(0,0)"/>
<path d="" fill="#322E2E" transform="translate(0,0)"/>
<path d="" fill="#383939" transform="translate(0,0)"/>
<path d="" fill="#373636" transform="translate(0,0)"/>
<path d="" fill="#343333" transform="translate(0,0)"/>
<path d="" fill="#353534" transform="translate(0,0)"/>
<path d="" fill="#343433" transform="translate(0,0)"/>
<path d="" fill="#313332" transform="translate(0,0)"/>
<path d="" fill="#313533" transform="translate(0,0)"/>
<path d="" fill="#333433" transform="translate(0,0)"/>
<path d="" fill="#343533" transform="translate(0,0)"/>
<path d="" fill="#333434" transform="translate(0,0)"/>
<path d="" fill="#2F2F2E" transform="translate(0,0)"/>
<path d="" fill="#303030" transform="translate(0,0)"/>
<path d="" fill="#2E2D2C" transform="translate(0,0)"/>
<path d="" fill="#2E2C2D" transform="translate(0,0)"/>
<path d="" fill="#2C2C2C" transform="translate(0,0)"/>
<path d="" fill="#2D2D2A" transform="translate(0,0)"/>
<path d="" fill="#2D2B2B" transform="translate(0,0)"/>
<path d="" fill="#2E2D2B" transform="translate(0,0)"/>
<path d="" fill="#2B2C2C" transform="translate(0,0)"/>
<path d="" fill="#2F2E2C" transform="translate(0,0)"/>
<path d="" fill="#2E2D2E" transform="translate(0,0)"/>
<path d="" fill="#2F2C2B" transform="translate(0,0)"/>
<path d="" fill="#33302F" transform="translate(0,0)"/>
<path d="" fill="#383230" transform="translate(0,0)"/>
<path d="" fill="#343332" transform="translate(0,0)"/>
<path d="" fill="#2E2D2E" transform="translate(0,0)"/>
<path d="" fill="#2E2C2D" transform="translate(0,0)"/>
<path d="" fill="#F74C58" transform="translate(0,0)"/>
<path d="" fill="#323235" transform="translate(0,0)"/>
<path d="" fill="#F74B57" transform="translate(0,0)"/>
<path d="" fill="#434342" transform="translate(0,0)"/>
<path d="" fill="#353535" transform="translate(0,0)"/>
<path d="" fill="#353233" transform="translate(0,0)"/>
<path d="" fill="#2D2B2B" transform="translate(0,0)"/>
<path d="" fill="#2C2A2A" transform="translate(0,0)"/>
<path d="" fill="#644145" transform="translate(0,0)"/>
<path d="" fill="#252524" transform="translate(0,0)"/>
<path d="" fill="#F54E58" transform="translate(0,0)"/>
<path d="" fill="#242322" transform="translate(0,0)"/>
<path d="" fill="#FC4B56" transform="translate(0,0)"/>
<path d="" fill="#2D2C2D" transform="translate(0,0)"/>
<path d="" fill="#2E2F30" transform="translate(0,0)"/>
<path d="" fill="#2A2727" transform="translate(0,0)"/>
<path d="" fill="#272828" transform="translate(0,0)"/>
<path d="" fill="#282725" transform="translate(0,0)"/>
<path d="" fill="#2A2929" transform="translate(0,0)"/>
<path d="" fill="#242323" transform="translate(0,0)"/>
<path d="" fill="#262623" transform="translate(0,0)"/>
<path d="" fill="#262223" transform="translate(0,0)"/>
<path d="" fill="#2B2A2B" transform="translate(0,0)"/>
<path d="" fill="#2C2A2D" transform="translate(0,0)"/>
<path d="" fill="#212222" transform="translate(0,0)"/>
<path d="" fill="#252522" transform="translate(0,0)"/>
<path d="" fill="#242522" transform="translate(0,0)"/>
<path d="" fill="#202221" transform="translate(0,0)"/>
<path d="" fill="#212120" transform="translate(0,0)"/>
<path d="" fill="#22211F" transform="translate(0,0)"/>
<path d="" fill="#222320" transform="translate(0,0)"/>
<path d="" fill="#222420" transform="translate(0,0)"/>
<path d="" fill="#212021" transform="translate(0,0)"/>
<path d="" fill="#212421" transform="translate(0,0)"/>
<path d="" fill="#262323" transform="translate(0,0)"/>
<path d="" fill="#F94D56" transform="translate(0,0)"/>
<path d="" fill="#272626" transform="translate(0,0)"/>
<path d="" fill="#21231F" transform="translate(0,0)"/>
<path d="" fill="#22201F" transform="translate(0,0)"/>
<path d="" fill="#2C292A" transform="translate(0,0)"/>
<path d="" fill="#262825" transform="translate(0,0)"/>
<path d="" fill="#232322" transform="translate(0,0)"/>
<path d="" fill="#292625" transform="translate(0,0)"/>
<path d="" fill="#232423" transform="translate(0,0)"/>
<path d="" fill="#201F20" transform="translate(0,0)"/>
<path d="" fill="#FA4A52" transform="translate(0,0)"/>
<path d="" fill="#FB4E57" transform="translate(0,0)"/>
<path d="" fill="#2C2829" transform="translate(0,0)"/>
<path d="" fill="#2B2B2C" transform="translate(0,0)"/>
<path d="" fill="#252524" transform="translate(0,0)"/>
<path d="" fill="#2B2B2B" transform="translate(0,0)"/>
<path d="" fill="#202225" transform="translate(0,0)"/>
<path d="" fill="#282A28" transform="translate(0,0)"/>
<path d="" fill="#2C2928" transform="translate(0,0)"/>
<path d="" fill="#292929" transform="translate(0,0)"/>
<path d="" fill="#262A29" transform="translate(0,0)"/>
<path d="" fill="#211E1E" transform="translate(0,0)"/>
<path d="" fill="#252324" transform="translate(0,0)"/>
<path d="" fill="#F55056" transform="translate(0,0)"/>
<path d="" fill="#32302E" transform="translate(0,0)"/>
<path d="" fill="#2F2E2F" transform="translate(0,0)"/>
<path d="" fill="#2C2C2C" transform="translate(0,0)"/>
<path d="" fill="#222122" transform="translate(0,0)"/>
<path d="" fill="#2D2729" transform="translate(0,0)"/>
<path d="" fill="#232324" transform="translate(0,0)"/>
<path d="" fill="#212323" transform="translate(0,0)"/>
<path d="" fill="#1F1E1E" transform="translate(0,0)"/>
<path d="" fill="#E44F5B" transform="translate(0,0)"/>
<path d="" fill="#2D2B29" transform="translate(0,0)"/>
<path d="" fill="#FA4955" transform="translate(0,0)"/>
<path d="" fill="#292A29" transform="translate(0,0)"/>
<path d="" fill="#221E1F" transform="translate(0,0)"/>
<path d="" fill="#F94D56" transform="translate(0,0)"/>
<path d="" fill="#2A272A" transform="translate(0,0)"/>
<path d="" fill="#1D1D1D" transform="translate(0,0)"/>
<path d="" fill="#212020" transform="translate(0,0)"/>
<path d="" fill="#272729" transform="translate(0,0)"/>
<path d="" fill="#F94B57" transform="translate(0,0)"/>
<path d="" fill="#2B2628" transform="translate(0,0)"/>
<path d="" fill="#DD555C" transform="translate(0,0)"/>
<path d="" fill="#F94C55" transform="translate(0,0)"/>
<path d="" fill="#2C282A" transform="translate(0,0)"/>
<path d="" fill="#2C2C2B" transform="translate(0,0)"/>
<path d="" fill="#202222" transform="translate(0,0)"/>
<path d="" fill="#262827" transform="translate(0,0)"/>
<path d="" fill="#252527" transform="translate(0,0)"/>
<path d="" fill="#222222" transform="translate(0,0)"/>
<path d="" fill="#28272A" transform="translate(0,0)"/>
<path d="" fill="#FD4A53" transform="translate(0,0)"/>
<path d="" fill="#282A28" transform="translate(0,0)"/>
<path d="" fill="#302D2B" transform="translate(0,0)"/>
<path d="" fill="#212124" transform="translate(0,0)"/>
<path d="" fill="#272827" transform="translate(0,0)"/>
<path d="" fill="#2D302C" transform="translate(0,0)"/>
<path d="" fill="#252626" transform="translate(0,0)"/>
<path d="" fill="#212322" transform="translate(0,0)"/>
<path d="" fill="#232627" transform="translate(0,0)"/>
<path d="" fill="#292826" transform="translate(0,0)"/>
<path d="" fill="#292928" transform="translate(0,0)"/>
<path d="" fill="#593D3F" transform="translate(0,0)"/>
<path d="" fill="#2A2828" transform="translate(0,0)"/>
<path d="" fill="#262727" transform="translate(0,0)"/>
<path d="" fill="#FA4854" transform="translate(0,0)"/>
<path d="" fill="#232425" transform="translate(0,0)"/>
<path d="" fill="#282A26" transform="translate(0,0)"/>
<path d="" fill="#24221F" transform="translate(0,0)"/>
<path d="" fill="#292829" transform="translate(0,0)"/>
<path d="" fill="#FF4D55" transform="translate(0,0)"/>
<path d="" fill="#F65158" transform="translate(0,0)"/>
<path d="" fill="#E05760" transform="translate(0,0)"/>
<path d="" fill="#2D3030" transform="translate(0,0)"/>
<path d="" fill="#28282B" transform="translate(0,0)"/>
<path d="" fill="#302F2F" transform="translate(0,0)"/>
<path d="" fill="#282827" transform="translate(0,0)"/>
<path d="" fill="#222120" transform="translate(0,0)"/>
<path d="" fill="#252221" transform="translate(0,0)"/>
<path d="" fill="#2F2F2F" transform="translate(0,0)"/>
<path d="" fill="#313233" transform="translate(0,0)"/>
<path d="" fill="#312F2F" transform="translate(0,0)"/>
<path d="" fill="#2A2B2B" transform="translate(0,0)"/>
<path d="" fill="#2D2F2E" transform="translate(0,0)"/>
<path d="" fill="#272423" transform="translate(0,0)"/>
<path d="" fill="#232224" transform="translate(0,0)"/>
<path d="" fill="#252424" transform="translate(0,0)"/>
<path d="" fill="#FA4D58" transform="translate(0,0)"/>
<path d="" fill="#2C2E2B" transform="translate(0,0)"/>
<path d="" fill="#2A2627" transform="translate(0,0)"/>
<path d="" fill="#F55059" transform="translate(0,0)"/>
<path d="" fill="#2E2C2D" transform="translate(0,0)"/>
<path d="" fill="#2E2F2F" transform="translate(0,0)"/>
<path d="" fill="#2E2E2E" transform="translate(0,0)"/>
<path d="" fill="#323333" transform="translate(0,0)"/>
<path d="" fill="#2A2C2A" transform="translate(0,0)"/>
<path d="" fill="#2F2F31" transform="translate(0,0)"/>
<path d="" fill="#2C2D2D" transform="translate(0,0)"/>
<path d="" fill="#303331" transform="translate(0,0)"/>
<path d="" fill="#303132" transform="translate(0,0)"/>
<path d="" fill="#F94952" transform="translate(0,0)"/>
<path d="" fill="#353134" transform="translate(0,0)"/>
<path d="" fill="#292C2B" transform="translate(0,0)"/>
<path d="" fill="#F84854" transform="translate(0,0)"/>
<path d="" fill="#E3515B" transform="translate(0,0)"/>
<path d="" fill="#FA4955" transform="translate(0,0)"/>
<path d="" fill="#FC4A54" transform="translate(0,0)"/>
<path d="" fill="#2F3233" transform="translate(0,0)"/>
<path d="" fill="#303232" transform="translate(0,0)"/>
<path d="" fill="#2E2C2C" transform="translate(0,0)"/>
<path d="" fill="#333132" transform="translate(0,0)"/>
<path d="" fill="#2E2D2D" transform="translate(0,0)"/>
<path d="" fill="#FB4753" transform="translate(0,0)"/>
<path d="" fill="#323335" transform="translate(0,0)"/>
<path d="" fill="#343537" transform="translate(0,0)"/>
<path d="" fill="#F2525B" transform="translate(0,0)"/>
<path d="" fill="#2E3133" transform="translate(0,0)"/>
<path d="" fill="#343535" transform="translate(0,0)"/>
<path d="" fill="#363738" transform="translate(0,0)"/>
<path d="" fill="#584243" transform="translate(0,0)"/>
<path d="" fill="#373637" transform="translate(0,0)"/>
<path d="" fill="#2C2B2C" transform="translate(0,0)"/>
<path d="" fill="#63494C" transform="translate(0,0)"/>
<path d="" fill="#363739" transform="translate(0,0)"/>
<path d="" fill="#312F2F" transform="translate(0,0)"/>
<path d="" fill="#574342" transform="translate(0,0)"/>
<path d="" fill="#61474A" transform="translate(0,0)"/>
<path d="" fill="#3A3639" transform="translate(0,0)"/>
<path d="" fill="#373A3B" transform="translate(0,0)"/>
<path d="" fill="#2C2B2E" transform="translate(0,0)"/>
<path d="" fill="#393937" transform="translate(0,0)"/>
<path d="" fill="#594649" transform="translate(0,0)"/>
<path d="" fill="#FB4D56" transform="translate(0,0)"/>
<path d="" fill="#FB4955" transform="translate(0,0)"/>
<path d="" fill="#F94A54" transform="translate(0,0)"/>
<path d="" fill="#E5565F" transform="translate(0,0)"/>
<path d="" fill="#F2545B" transform="translate(0,0)"/>
<path d="" fill="#E85660" transform="translate(0,0)"/>
<path d="" fill="#F1555F" transform="translate(0,0)"/>
<path d="" fill="#F94F57" transform="translate(0,0)"/>
<path d="" fill="#EE505A" transform="translate(0,0)"/>
<path d="" fill="#ED515B" transform="translate(0,0)"/>
<path d="" fill="#EE565E" transform="translate(0,0)"/>
<path d="" fill="#EB555D" transform="translate(0,0)"/>
<path d="" fill="#EB565F" transform="translate(0,0)"/>
<path d="" fill="#EF5259" transform="translate(0,0)"/>
<path d="" fill="#F1515B" transform="translate(0,0)"/>
<path d="" fill="#EE555A" transform="translate(0,0)"/>
<path d="" fill="#EA575F" transform="translate(0,0)"/>
<path d="" fill="#EF5258" transform="translate(0,0)"/>
</svg>
