<?xml version="1.0" encoding="UTF-8"?>
<svg version="1.1" xmlns="http://www.w3.org/2000/svg" width="2382" height="664">
<path d="M0 0 C786.06 0 1572.12 0 2382 0 C2382 219.12 2382 438.24 2382 664 C1595.94 664 809.88 664 0 664 C0 444.88 0 225.76 0 0 Z " fill="#FEFEFE" transform="translate(0,0)"/>
<path d="M0 0 C39.31125 -0.04125 78.6225 -0.0825 119.125 -0.125 C131.50660645 -0.14320801 143.88821289 -0.16141602 156.64501953 -0.18017578 C171.84350586 -0.18920898 171.84350586 -0.18920898 178.97384644 -0.19088745 C183.92039814 -0.19273977 188.86690629 -0.2001907 193.81344604 -0.21115112 C200.14783687 -0.22499804 206.48216549 -0.22895874 212.81657004 -0.22614455 C215.12580774 -0.22673192 217.4350479 -0.23062083 219.74427247 -0.23843026 C239.62467352 -0.30247048 259.12673961 1.06326518 278.75 4.3125 C279.73799088 4.4749823 279.73799088 4.4749823 280.74594116 4.64074707 C291.42063717 6.40989731 301.72018249 8.62732888 312 12 C312.94552734 12.2985791 313.89105469 12.5971582 314.86523438 12.90478516 C371.44162521 30.85724981 418.36229978 65.06509052 446.83203125 117.6875 C452.91369744 129.42914097 457.63193663 142.2287914 461 155 C461.33644531 156.24523437 461.67289063 157.49046875 462.01953125 158.7734375 C475.90609437 213.38053343 469.44000293 276.8096936 441.33398438 325.76416016 C423.11012587 356.30846766 397.08246949 381.77012281 366 399 C365.21496094 399.43699219 364.42992187 399.87398437 363.62109375 400.32421875 C316.93356247 426.08534498 266.95601261 434.20331976 214.22241211 434.11352539 C211.87510682 434.11324273 209.52780145 434.11340279 207.18049622 434.1139679 C200.85938259 434.11425279 194.53828824 434.10840612 188.21717906 434.10139394 C182.26499496 434.09574715 176.31281152 434.09476793 170.3606251 434.09374207 C158.5847328 434.09156281 146.80884749 434.08493352 135.03295898 434.07543945 C123.60555048 434.06623602 112.17814389 434.05916959 100.75073242 434.05493164 C99.69107445 434.05453756 99.69107445 434.05453756 98.61000925 434.05413551 C95.06540108 434.05283031 91.52079291 434.05156664 87.97618473 434.05032361 C58.65078455 434.03998613 29.32539439 434.02156694 0 434 C0 400.34 0 366.68 0 332 C4.49659864 336.49659864 4.49659864 336.49659864 6.19140625 339.4765625 C6.57264648 340.13736816 6.95388672 340.79817383 7.34667969 341.47900391 C7.74790039 342.18718262 8.14912109 342.89536133 8.5625 343.625 C9.45307444 345.16744844 10.34504676 346.70909047 11.23828125 348.25 C11.69541504 349.04019531 12.15254883 349.83039063 12.62353516 350.64453125 C14.78092746 354.3363583 17.01173629 357.98181181 19.25 361.625 C19.69206787 362.34574707 20.13413574 363.06649414 20.58959961 363.80908203 C21.53379299 365.34844467 22.47821942 366.88766438 23.42285156 368.42675781 C26.49903929 373.44580095 29.56202859 378.4728845 32.625 383.5 C33.54974121 385.0152124 33.54974121 385.0152124 34.49316406 386.56103516 C35.06518555 387.49995605 35.63720703 388.43887695 36.2265625 389.40625 C36.73783691 390.24478516 37.24911133 391.08332031 37.77587891 391.94726562 C39 394 39 394 40 396 C45.17280263 388.65607739 49.47405121 380.88398287 53.75 373 C58.72072241 363.86522582 63.70463907 354.75750561 69.34472656 346.01171875 C71.47933005 342.6081403 71.47933005 342.6081403 71.82397461 338.70727539 C70.79581052 335.32910898 69.16758585 332.49053339 67.34375 329.49609375 C66.78192017 328.55429764 66.78192017 328.55429764 66.20874023 327.59347534 C64.97952634 325.53717484 63.73994307 323.4873455 62.5 321.4375 C61.64461727 320.01165066 60.78980594 318.58545838 59.93554688 317.15893555 C57.30117492 312.76606671 54.65194325 308.38227693 52 304 C51.16144904 302.61296135 50.32290716 301.2259172 49.484375 299.83886719 C45.20320432 292.76088229 40.9085409 285.69124976 36.59960938 278.63012695 C35.05643355 276.09278978 33.52792866 273.54654777 32 271 C21.44 270.67 10.88 270.34 0 270 C0 180.9 0 91.8 0 0 Z " fill="#FF2F2F" transform="translate(496,115)"/>
<path d="M0 0 C1.216875 -0.00261841 2.43375 -0.00523682 3.6875 -0.00793457 C24.36394926 -0.01268559 44.44431713 1.20677212 64.875 4.3125 C66.51734619 4.54477295 66.51734619 4.54477295 68.19287109 4.78173828 C83.45970054 6.9530955 98.15594458 10.75269058 112.875 15.3125 C114.3290625 15.76085205 114.3290625 15.76085205 115.8125 16.21826172 C131.53725163 21.1562824 146.17789353 27.89050771 160.875 35.3125 C160.20134896 39.66787717 158.67288121 43.50812467 156.9453125 47.53125 C156.64308777 48.24567261 156.34086304 48.96009521 156.02947998 49.69616699 C155.0240253 52.07015897 154.01199175 54.44128816 153 56.8125 C152.29005428 58.48547641 151.58059148 60.15865783 150.87158203 61.83203125 C149.35071932 65.4201608 147.82745104 69.00725653 146.30273438 72.59375 C143.79076042 78.50619713 141.29257873 84.42441988 138.796875 90.34375 C138.16463516 91.84307068 138.16463516 91.84307068 137.5196228 93.37268066 C136.67660993 95.37189667 135.83362264 97.37112346 134.99066162 99.37036133 C129.65147435 112.03185507 124.30809792 124.69095481 118.875 137.3125 C113.11595077 135.54312178 107.65718609 133.39384779 102.17578125 130.89892578 C89.90942845 125.31961712 77.45952631 120.94527793 64.54980469 117.10839844 C62.33108671 116.44821036 60.12211544 115.76494136 57.9140625 115.0703125 C38.99565254 109.48570178 19.62000682 107.93463886 0 107.9375 C-1.21032394 107.93478088 -1.21032394 107.93478088 -2.44509888 107.93200684 C-19.4037914 107.93632868 -36.42975015 108.53392788 -49.6015625 120.56640625 C-53.4610372 124.98995803 -53.51067633 128.93241118 -53.359375 134.62890625 C-52.96248546 139.17329143 -51.84981882 141.84489101 -48.34375 144.828125 C-30.03029899 157.96603551 -5.25142591 160.16135772 16.33868408 164.10900879 C58.6006175 171.84254687 103.87155697 180.80901534 138.875 207.3125 C139.43864258 207.73466797 140.00228516 208.15683594 140.58300781 208.59179688 C157.39484045 221.39073071 170.45242109 239.76255504 175.875 260.3125 C176.08433389 261.88137763 176.26905461 263.45369247 176.43188477 265.02807617 C176.51648453 265.83226486 176.60108429 266.63645355 176.68824768 267.4650116 C176.74987595 268.07468277 176.81150421 268.68435394 176.875 269.3125 C176.32171021 269.26063034 175.76842041 269.20876068 175.19836426 269.15531921 C150.92030878 266.0534009 150.92030878 266.0534009 127.92156982 271.45300293 C120.91103992 277.37540462 118.17267241 286.9517526 115.33789062 295.36767578 C113.13357684 301.66381915 109.55752669 307.15634865 106.0625 312.8125 C104.92693857 314.737199 103.79510379 316.66410428 102.66796875 318.59375 C100.75113335 321.84193148 98.81804872 325.07993119 96.875 328.3125 C98.14859375 328.2403125 99.4221875 328.168125 100.734375 328.09375 C125.42703042 326.86328458 150.15992051 327.22006212 174.875 327.3125 C174.41786557 328.88338381 173.95690094 330.45315325 173.49438477 332.02246094 C173.23810806 332.89674744 172.98183136 333.77103394 172.7177887 334.67181396 C167.11071537 352.24029857 156.49338346 367.11315966 143.875 380.3125 C143.28847656 380.9621875 142.70195312 381.611875 142.09765625 382.28125 C130.80998514 394.33460559 116.44491081 402.85361545 101.875 410.3125 C101.24271484 410.64088867 100.61042969 410.96927734 99.95898438 411.30761719 C64.21887484 429.67672827 22.92301225 434.52254554 -16.75 434.5625 C-17.8191716 434.56401062 -17.8191716 434.56401062 -18.90994263 434.56555176 C-78.13687225 434.51026559 -140.14236457 424.31144077 -193.125 396.875 C-193.92671631 396.4620166 -194.72843262 396.0490332 -195.55444336 395.62353516 C-200.99835665 392.69243006 -200.99835665 392.69243006 -202.125 389.3125 C-201.23389585 386.91337344 -200.27802452 384.68545035 -199.1796875 382.3828125 C-198.85868073 381.68953354 -198.53767395 380.99625458 -198.2069397 380.28196716 C-197.51130694 378.7825085 -196.81120335 377.28511771 -196.10717773 375.7895813 C-194.98788737 373.41176801 -193.88004252 371.02893295 -192.77539062 368.64428711 C-191.64607992 366.20669711 -190.51612122 363.76943501 -189.38262939 361.33378601 C-186.06692686 354.2086208 -182.82937117 347.05101491 -179.625 339.875 C-179.11864014 338.74312256 -178.61228027 337.61124512 -178.09057617 336.44506836 C-171.07474713 320.74640133 -164.10043398 305.02914694 -157.125 289.3125 C-153.03798997 290.22456028 -149.57099291 292.02285888 -145.875 293.9375 C-117.89682549 308.13571318 -88.11200215 318.18066756 -57.125 323.3125 C-56.25214355 323.46203125 -55.37928711 323.6115625 -54.47998047 323.765625 C-28.02387829 328.1505621 9.42010036 332.23924018 32.8125 316.3125 C36.51833231 312.71896563 37.20110728 309.60440771 37.3125 304.5 C37.35246094 303.50355469 37.39242187 302.50710938 37.43359375 301.48046875 C36.56779097 296.57021663 34.22339653 293.02266105 30.17358398 290.07348633 C28.27717738 288.98118648 26.36498493 288.03537574 24.375 287.125 C23.66142334 286.78678223 22.94784668 286.44856445 22.21264648 286.10009766 C15.91436892 283.18843722 9.60304622 281.02534273 2.875 279.3125 C1.70952637 279.00844238 1.70952637 279.00844238 0.52050781 278.69824219 C-12.69152582 275.27766698 -26.00007153 272.50437212 -39.38851929 269.8861084 C-87.48747678 260.47237579 -146.68390897 248.13095406 -177.03125 205.46875 C-183.84137004 195.20274815 -189.02126533 185.32361667 -192.125 173.3125 C-192.38394043 172.33796875 -192.64288086 171.3634375 -192.90966797 170.359375 C-195.26779864 160.61823321 -195.68420705 151.29463068 -195.625 141.3125 C-195.62185791 140.09510635 -195.62185791 140.09510635 -195.61865234 138.8531189 C-195.43980169 105.16502451 -183.38368192 76.50753318 -159.515625 52.7109375 C-158.18683888 51.37780894 -156.86880972 50.03272187 -155.59765625 48.64453125 C-146.34527747 38.67451644 -134.00761907 31.6872384 -122.125 25.3125 C-121.02800781 24.71695313 -119.93101562 24.12140625 -118.80078125 23.5078125 C-94.57662901 10.84710575 -67.24169574 3.89872478 -40.125 1.3125 C-39.23586914 1.22492432 -38.34673828 1.13734863 -37.43066406 1.04711914 C-24.97973069 -0.0128409 -12.48769899 0.02570006 0 0 Z " fill="#FF2F2F" transform="translate(317.125,116.6875)"/>
<path d="M0 0 C112.55547574 0 112.55547574 0 140.390625 27.359375 C141.25171875 28.23078125 142.1128125 29.1021875 143 30 C143.98226562 30.96679688 143.98226562 30.96679688 144.984375 31.953125 C164.90213438 52.96727481 168.84888563 81.41267447 168.24609375 109.109375 C167.36127877 136.55699641 158.0177086 162.07658439 137.87890625 181.359375 C100.41847317 214.06910867 45.31884963 206 0 206 C0 138.02 0 70.04 0 0 Z " fill="#FFFEFE" transform="translate(645,229)"/>
<path d="M0 0 C65.57476711 0 65.57476711 0 75 3.625 C75.69206543 3.88933838 76.38413086 4.15367676 77.09716797 4.42602539 C82.86279881 6.73971289 87.52033512 9.65491733 92 14 C92.55945312 14.52078125 93.11890625 15.0415625 93.6953125 15.578125 C102.05252146 24.22930614 104.35466659 36.1679394 104.2109375 47.78125 C103.44195031 59.51542492 99.24206869 69.32249788 90.625 77.375 C86.62129187 80.72158514 81.4473651 85 76 85 C82.86344596 95.09573012 89.87924331 105.06492226 97.0546875 114.94140625 C97.54678711 115.62090332 98.03888672 116.30040039 98.54589844 117.00048828 C99.52167371 118.3422612 100.50420574 119.67914436 101.49316406 121.01123047 C105 125.78353391 105 125.78353391 105 128 C88.51625018 130.49210842 88.51625018 130.49210842 83.10058594 126.65380859 C79.52090359 122.79049022 77.04529785 118.19823861 74.50976562 113.61132812 C71.7685775 108.87010106 68.54125876 104.46327069 65.375 100 C64.46741943 98.68273926 64.46741943 98.68273926 63.54150391 97.33886719 C62.97866699 96.52579102 62.41583008 95.71271484 61.8359375 94.875 C61.33626465 94.15054688 60.8365918 93.42609375 60.32177734 92.6796875 C59.0881571 90.8664397 59.0881571 90.8664397 57 90 C54.155938 89.91309707 51.33600298 89.88438787 48.4921875 89.90234375 C47.74718994 89.90335083 47.00219238 89.90435791 46.23461914 89.90539551 C43.4480638 89.91063286 40.66153038 89.92459411 37.875 89.9375 C31.64625 89.958125 25.4175 89.97875 19 90 C19 102.87 19 115.74 19 129 C12.73 129 6.46 129 0 129 C0 86.43 0 43.86 0 0 Z " fill="#060606" transform="translate(1837,220)"/>
<path d="M0 0 C1.20970459 0.00523682 2.41940918 0.01047363 3.66577148 0.01586914 C4.97094727 0.0190918 6.27612305 0.02231445 7.62084961 0.02563477 C9.00952213 0.03399138 10.39819401 0.04245634 11.78686523 0.05102539 C13.17944179 0.05603873 14.57202005 0.06060193 15.96459961 0.06469727 C19.38456394 0.07653105 22.80444367 0.09301659 26.22436523 0.11352539 C32.89082753 13.02589444 38.78322538 26.22716689 44.63891602 39.52368164 C47.18682834 45.29277662 49.76717311 51.04721016 52.34936523 56.80102539 C52.87111328 57.96472656 53.39286133 59.12842773 53.93041992 60.32739258 C57.22429064 67.67141571 60.52923671 75.01041676 63.83764648 82.34790039 C64.64414386 84.137361 65.45062167 85.92683042 66.25708008 87.71630859 C67.82233085 91.18947271 69.38929951 94.66185451 70.95727539 98.13378906 C74.26465708 105.46484952 77.55901081 112.80146178 80.75952148 120.17993164 C81.2391333 121.28409424 81.71874512 122.38825684 82.21289062 123.52587891 C83.22436523 126.11352539 83.22436523 126.11352539 83.22436523 128.11352539 C72.99436523 128.11352539 62.76436523 128.11352539 52.22436523 128.11352539 C48.28086178 119.5692679 44.60250058 110.89667728 41.22436523 102.11352539 C21.75436523 102.11352539 2.28436523 102.11352539 -17.77563477 102.11352539 C-23.22063477 114.98352539 -23.22063477 114.98352539 -28.77563477 128.11352539 C-39.00563477 128.11352539 -49.23563477 128.11352539 -59.77563477 128.11352539 C-55.26240342 116.99311265 -50.54999996 106.0050631 -45.58407593 95.08047485 C-38.76674286 80.07699678 -32.06876168 65.02379006 -25.46313477 49.92602539 C-20.36411284 38.27836229 -15.25895819 26.63398964 -10.06851196 15.02670288 C-9.50340439 13.76275629 -8.93907881 12.49845974 -8.37557983 11.23379517 C-7.61421352 9.5259588 -6.84933049 7.81969147 -6.08422852 6.11352539 C-5.65940186 5.16477539 -5.2345752 4.21602539 -4.796875 3.23852539 C-3.30546559 0.13519584 -3.30546559 0.13519584 0 0 Z " fill="#020202" transform="translate(1235.775634765625,219.886474609375)"/>
<path d="M0 0 C32.01 0 64.02 0 97 0 C97 7.92 97 15.84 97 24 C74.89 24 52.78 24 30 24 C30 33.24 30 42.48 30 52 C49.47 52 68.94 52 89 52 C89 59.59 89 67.18 89 75 C69.53 75 50.06 75 30 75 C30 84.9 30 94.8 30 105 C52.77 105 75.54 105 99 105 C99 112.92 99 120.84 99 129 C66.33 129 33.66 129 0 129 C0 86.43 0 43.86 0 0 Z " fill="#020202" transform="translate(1443,220)"/>
<path d="M0 0 C-2.45765035 7.91909556 -5.66818573 15.41985296 -9 23 C-9.52843506 22.79842285 -10.05687012 22.5968457 -10.60131836 22.38916016 C-13.04434555 21.46140133 -15.49085551 20.54317485 -17.9375 19.625 C-18.76830078 19.30789062 -19.59910156 18.99078125 -20.45507812 18.6640625 C-28.7596594 15.5619621 -36.60629176 13.60451466 -45.5 13.625 C-46.23758545 13.62661133 -46.9751709 13.62822266 -47.73510742 13.62988281 C-54.87335813 13.79045213 -60.02365342 15.4701054 -65.5 20.125 C-68.18433791 23.48042238 -68.33487679 25.73032089 -68 30 C-66.31035881 34.43530813 -63.73649991 35.96452645 -59.55078125 37.98291016 C-54.37569105 40.04640803 -48.91745133 41.12938824 -43.5 42.375 C-7.05922762 51.14956992 -7.05922762 51.14956992 2 65 C6.83389568 73.6588474 7.33301265 82.57289329 4.9375 92.125 C1.1257841 103.17011166 -6.80771217 110.81749282 -16.9375 116.25 C-37.77255277 125.92045278 -62.67490824 123.12676179 -83.9140625 116.171875 C-97.71186441 110.93220339 -97.71186441 110.93220339 -101 106 C-100.30908203 103.63989258 -100.30908203 103.63989258 -99.0078125 100.89453125 C-98.55019531 99.91162109 -98.09257813 98.92871094 -97.62109375 97.91601562 C-97.12738281 96.89185547 -96.63367187 95.86769531 -96.125 94.8125 C-95.63902344 93.77673828 -95.15304687 92.74097656 -94.65234375 91.67382812 C-93.44712865 89.10979208 -92.22933804 86.55253557 -91 84 C-89.44152344 84.81404297 -89.44152344 84.81404297 -87.8515625 85.64453125 C-71.24516759 94.21312771 -52.20834114 100.88669389 -33.3828125 95.2109375 C-30.3291475 93.83511041 -28.18634789 92.21546475 -26 89.6875 C-24.70137994 86.1974586 -24.5296899 83.69529362 -25 80 C-30.3180148 71.90736878 -43.02602576 70.63570534 -51.77490234 68.53857422 C-85.92804207 60.27197051 -85.92804207 60.27197051 -94.6640625 46.34765625 C-99.0443669 37.23221833 -99.69593508 26.8623241 -96.875 17.125 C-92.18974444 5.49943598 -84.36201398 -1.45369347 -73.19140625 -6.67578125 C-51.34021884 -15.74255301 -19.83828274 -13.22552183 0 0 Z " fill="#030303" transform="translate(1167,229)"/>
<path d="M0 0 C-0.61303628 5.40508043 -2.44380693 9.92439045 -4.5625 14.875 C-4.89185547 15.65875 -5.22121094 16.4425 -5.56054688 17.25 C-6.36796786 19.16908756 -7.18319769 21.0848865 -8 23 C-11.60246726 21.83373362 -15.08917903 20.56659899 -18.5625 19.0625 C-30.90100876 14.15284003 -45.84534589 11.01217613 -58.75 15.6875 C-62.51717055 17.5076649 -65.0796733 19.1593466 -67 23 C-67.78488513 27.10812218 -67.50599545 30.03200871 -65.5625 33.75 C-59.18580261 39.34905137 -51.06012576 40.83485512 -42.9375 42.375 C-29.88216988 45.03755891 -17.30502773 48.70724773 -6 56 C-5.113125 56.556875 -4.22625 57.11375 -3.3125 57.6875 C3.34861772 64.34861772 6.23348488 71.79572725 6.3125 81.0625 C6.30172248 92.45434284 3.4104484 99.43323929 -4.5859375 107.7421875 C-17.53341094 119.85163677 -34.59357939 122.34196759 -51.74755859 121.97900391 C-69.04194069 121.31033384 -82.88314361 117.33047445 -98 109 C-98.66 108.67 -99.32 108.34 -100 108 C-99.43997169 102.43527426 -97.3654757 98.0732061 -94.9375 93.125 C-94.56044922 92.34125 -94.18339844 91.5575 -93.79492188 90.75 C-92.87006766 88.83004947 -91.93596022 86.914561 -91 85 C-87.42899902 85.81598396 -84.56315104 87.16681475 -81.3125 88.875 C-68.07071782 95.56794432 -51.5254965 100.08369822 -36.7734375 96.13671875 C-34.13248953 95.17859119 -31.56981656 94.13253863 -29 93 C-28.01 92.67 -27.02 92.34 -26 92 C-24.54871921 87.64615763 -24.37841345 83.5458197 -25 79 C-30.57551675 71.69415047 -44.35627614 70.04750528 -52.875 68.0625 C-69.77106689 63.96683738 -85.15923244 59.59105472 -94.88671875 44.16015625 C-98.82455102 36.51937994 -99.21452163 28.31353214 -97.3125 19.9921875 C-93.8282428 9.56845138 -87.06257708 1.0720171 -77.5 -4.44140625 C-54.44518723 -15.66722351 -21.6042151 -14.40281006 0 0 Z " fill="#020202" transform="translate(1656,229)"/>
<path d="M0 0 C58.84343112 0 58.84343112 0 73.30859375 13.15625 C83.00174784 23.72245954 87.05783478 36.45554125 86.44921875 50.60546875 C85.62351637 61.01116907 82.28356304 71.35675483 75 79 C74.48824219 79.59941406 73.97648437 80.19882812 73.44921875 80.81640625 C65.81943743 89.24740566 56.83735569 92.04435754 46 95 C30.82 95 15.64 95 0 95 C0 63.65 0 32.3 0 0 Z " fill="#FEFEFE" transform="translate(1705,237)"/>
<path d="M0 0 C84.97674419 0 84.97674419 0 107.2421875 20.015625 C111.62369093 24.48237169 114.54959814 29.47173301 117.375 35 C117.70918945 35.65234619 118.04337891 36.30469238 118.38769531 36.97680664 C125.63227622 51.95652582 125.30854442 72.10714486 120.32421875 87.7421875 C114.83748844 101.24051517 106.39170415 111.40508455 94 119 C93.25363281 119.46277344 92.50726562 119.92554688 91.73828125 120.40234375 C65.97595156 134.79250754 23.36763547 129 0 129 C0 86.43 0 43.86 0 0 Z M19 17 C19 48.35 19 79.7 19 112 C59.57423372 114.57298227 59.57423372 114.57298227 92.8125 97.75 C97.06047794 93.2697693 99.77842228 88.7412538 102 83 C102.31839844 82.18144531 102.63679688 81.36289062 102.96484375 80.51953125 C106.9488002 68.38406942 106.47722436 54.53955281 101 43 C94.87314235 30.94130404 85.70003208 23.51323454 73 19 C55.52546203 14.63136551 37.01234145 17 19 17 Z " fill="#060606" transform="translate(1686,220)"/>
<path d="M0 0 C9.65369063 6.66475949 15.78469105 15.4784593 19.44921875 26.54296875 C21.68889268 38.87226286 19.9472652 50.67771648 13.19921875 61.3046875 C6.51972438 70.3664846 -1.83420264 76.94276358 -13.0546875 79.33203125 C-26.55258658 80.99801879 -38.70374052 79.77337926 -50.09375 71.96484375 C-59.35851694 64.67961277 -65.50037983 54.50787034 -67.15625 42.71484375 C-68.23795443 30.25885333 -65.62374513 19.99722534 -58.07421875 9.96875 C-44.04376532 -6.51917592 -18.86032806 -11.24102886 0 0 Z " fill="#FDFDFD" transform="translate(1677.15625,411.28515625)"/>
<path d="M0 0 C8.24708548 6.42892398 14.06462087 15.06387278 16.1875 25.375 C17.74132358 40.26825243 14.91248188 52.37213885 5.6640625 64.34765625 C-1.53407304 72.33583106 -12.47245413 76.97352306 -23.09765625 77.5546875 C-35.88480645 77.80085724 -45.3845099 75.47264027 -56 68.1875 C-59.91249264 64.27500736 -62.92577967 60.08601575 -65.8125 55.375 C-66.47185547 54.31925781 -66.47185547 54.31925781 -67.14453125 53.2421875 C-71.80971437 44.04369922 -71.22347694 31.00183554 -69.1171875 21.109375 C-68.20590453 18.67418184 -67.16791909 16.59066959 -65.8125 14.375 C-65.36519531 13.59125 -64.91789062 12.8075 -64.45703125 12 C-58.50020379 2.29021155 -49.5409508 -4.19799358 -38.48046875 -7.2734375 C-24.53662352 -9.11084024 -11.90280645 -7.96746123 0 0 Z " fill="#FDFDFD" transform="translate(1889.8125,413.625)"/>
<path d="M0 0 C29.7 0 59.4 0 90 0 C90 5.61 90 11.22 90 17 C66.24 17 42.48 17 18 17 C18 29.54 18 42.08 18 55 C39.12 55 60.24 55 82 55 C82 60.28 82 65.56 82 71 C60.88 71 39.76 71 18 71 C18 84.53 18 98.06 18 112 C42.75 112 67.5 112 93 112 C93 117.61 93 123.22 93 129 C62.31 129 31.62 129 0 129 C0 86.43 0 43.86 0 0 Z " fill="#060606" transform="translate(2153,220)"/>
<path d="M0 0 C9.9 0 19.8 0 30 0 C30 34.32 30 68.64 30 104 C50.79 104 71.58 104 93 104 C93 111.92 93 119.84 93 128 C62.31 128 31.62 128 0 128 C0 85.76 0 43.52 0 0 Z " fill="#010101" transform="translate(1333,220)"/>
<path d="M0 0 C6.6 0 13.2 0 20 0 C25.28880542 11.21531739 30.34919893 22.51246575 35.3125 33.875 C36.48770507 36.56165422 37.66333932 39.24812028 38.83908081 41.93453979 C39.64993953 43.7872514 40.46058656 45.64005566 41.27102661 47.49295044 C44.19971029 54.18477236 47.1489681 60.86730381 50.10546875 67.546875 C51.33884003 70.33824515 52.57178264 73.12980418 53.80453491 75.92144775 C54.59613064 77.71164675 55.3892618 79.50116765 56.18399048 81.28997803 C57.29346763 83.78786511 58.39729859 86.2881784 59.5 88.7890625 C59.82626877 89.51961853 60.15253754 90.25017456 60.48869324 91.00286865 C62.36624407 95.27833787 63.81795406 99.4808906 65 104 C65.66 104 66.32 104 67 104 C67.25842934 103.17937073 67.25842934 103.17937073 67.52207947 102.34216309 C69.31591299 96.78782042 71.42709959 91.47833878 73.81640625 86.15625 C74.18530472 85.32520752 74.55420319 84.49416504 74.9342804 83.63793945 C76.1399893 80.92363143 77.35127832 78.21185188 78.5625 75.5 C79.83941786 72.62874747 81.11484013 69.75683354 82.39019775 66.8848877 C83.2674531 64.90966222 84.14518428 62.934648 85.02337646 60.95983887 C90.06224446 49.6247567 95.03863816 38.26236436 100.01370239 26.89916992 C103.95184006 17.90575848 107.90697505 8.92439951 112 0 C118.27 0 124.54 0 131 0 C129.44238489 4.67284534 127.71368365 9.06260861 125.68359375 13.52734375 C125.35561798 14.25553314 125.02764221 14.98372253 124.68972778 15.73397827 C123.9800729 17.30953605 123.26925747 18.88457151 122.55740356 20.45913696 C120.6217549 24.74275588 118.69710051 29.03130033 116.7734375 33.3203125 C116.3755452 34.20739395 115.97765289 35.0944754 115.56770325 36.00843811 C111.50405193 45.0829161 107.52466414 54.19334799 103.5625 63.3125 C102.86899742 64.90788611 102.17547522 66.50326368 101.48193359 68.09863281 C101.13544769 68.89567627 100.78896179 69.69271973 100.43197632 70.51391602 C100.08317413 71.31627686 99.73437195 72.1186377 99.375 72.9453125 C98.85022568 74.15272095 98.85022568 74.15272095 98.31484985 75.38452148 C94.31908074 84.5737597 90.2989434 93.75229751 86.2729187 102.92831421 C85.47165831 104.75481135 84.67081 106.58148933 83.87039185 108.40835571 C82.75968191 110.94326569 81.64762262 113.4775792 80.53515625 116.01171875 C80.2057605 116.7639975 79.87636475 117.51627625 79.5369873 118.29135132 C78.09504966 121.57177368 76.60321484 124.79357032 75 128 C68.73 128 62.46 128 56 128 C50.55581518 116.448233 45.33360105 104.81215258 40.1875 93.125 C39.3561431 91.24018819 38.52467941 89.35542349 37.69311523 87.47070312 C31.21529364 72.7829574 24.76169028 58.0845444 18.31958008 43.38110352 C14.97232207 35.74469666 11.6144433 28.11369212 8.20703125 20.50390625 C7.91786331 19.85735077 7.62869537 19.21079529 7.33076477 18.54464722 C6.00881388 15.58996725 4.68282195 12.63722877 3.34985352 9.6875 C2.90182373 8.68847656 2.45379395 7.68945312 1.9921875 6.66015625 C1.60401855 5.80043213 1.21584961 4.94070801 0.81591797 4.05493164 C0 2 0 2 0 0 Z " fill="#030303" transform="translate(2006,220)"/>
<path d="M0 0 C3.63 0 7.26 0 11 0 C11 34.32 11 68.64 11 104 C1 104 1 104 -2.43359375 100.9921875 C-3.46660002 99.64349397 -4.46674615 98.26917113 -5.4375 96.875 C-5.9826123 96.14941895 -6.52772461 95.42383789 -7.08935547 94.67626953 C-8.20935095 93.18391867 -9.31717437 91.68235466 -10.41259766 90.171875 C-12.72918565 87.00233228 -15.1791313 83.94498085 -17.625 80.875 C-18.5274385 79.72505315 -19.42848575 78.57401311 -20.328125 77.421875 C-20.76962891 76.85662109 -21.21113281 76.29136719 -21.66601562 75.70898438 C-22.55533854 74.56966146 -23.44466146 73.43033854 -24.33398438 72.29101562 C-29.67691477 65.45050474 -35.07189349 58.6602821 -40.5625 51.9375 C-45.33950061 46.08651824 -50.00882207 40.1686311 -54.5859375 34.16015625 C-57.69774347 30.0866109 -60.85286663 26.04631433 -64 22 C-64.33 49.06 -64.66 76.12 -65 104 C-68.63 104 -72.26 104 -76 104 C-76 70.01 -76 36.02 -76 1 C-66 1 -66 1 -62.96875 3.38671875 C-62.11431813 4.46268855 -61.29232692 5.56501041 -60.5 6.6875 C-59.81719971 7.5705481 -59.81719971 7.5705481 -59.12060547 8.47143555 C-57.71865163 10.2946554 -56.35960544 12.14508841 -55 14 C-54.18349798 15.06802806 -53.36332838 16.13326484 -52.5390625 17.1953125 C-50.89976334 19.31207744 -49.27195937 21.43483409 -47.65234375 23.56640625 C-44.74614997 27.36173466 -41.71816443 31.05385912 -38.6875 34.75 C-33.54024642 41.032979 -28.57845651 47.43663799 -23.67578125 53.91162109 C-19.77169962 59.04700827 -15.72513893 64.01177783 -11.51171875 68.8984375 C-7.82203913 73.45458932 -4.44832457 78.25855372 -1 83 C-0.67 55.61 -0.34 28.22 0 0 Z " fill="#020202" transform="translate(1564,396)"/>
<path d="M0 0 C10.333125 -0.12375 10.333125 -0.12375 20.875 -0.25 C23.0288623 -0.28641602 25.18272461 -0.32283203 27.40185547 -0.36035156 C29.14028939 -0.3720518 30.87873442 -0.38224045 32.6171875 -0.390625 C33.4944751 -0.41108887 34.3717627 -0.43155273 35.27563477 -0.45263672 C45.06886629 -0.45806684 53.93204939 3.14425114 61 10 C66.48739571 17.18928366 66.59848719 25.29976961 66 34 C64.8187869 40.49667204 62.08712607 45.73234821 57 50 C48.4635237 55.31064615 40.48736984 57.31793061 30.56640625 57.1953125 C29.78712769 57.19329834 29.00784912 57.19128418 28.20495605 57.18920898 C25.32407656 57.17883047 22.44328169 57.15090858 19.5625 57.125 C13.106875 57.08375 6.65125 57.0425 0 57 C0 38.19 0 19.38 0 0 Z " fill="#FDFDFD" transform="translate(1856,237)"/>
<path d="M0 0 C10.90545867 10.12823221 16.40016104 23.99501125 17.03125 38.671875 C16.67525302 53.36061983 12.18716829 66.76015742 1.86328125 77.609375 C-11.94951989 90.32725898 -28.57856503 93.26913846 -46.71875 92.55810547 C-59.42725697 91.58481205 -71.399587 84.50445431 -80.05859375 75.37890625 C-91.59935866 60.81937644 -93.37407511 45.41210345 -92.05859375 27.37890625 C-91.30307285 23.25294782 -90.11975766 20.01625433 -88.05859375 16.37890625 C-87.27742188 14.97125 -87.27742188 14.97125 -86.48046875 13.53515625 C-78.99719478 0.99561609 -68.44381546 -7.86461328 -54.18359375 -11.74609375 C-34.95419732 -16.113075 -15.60520517 -12.28872893 0 0 Z M-71.93359375 11.19140625 C-81.49786637 22.98580975 -82.36956169 35.74070599 -81.05859375 50.37890625 C-78.36861849 61.56781195 -71.67539505 70.27069219 -62.05859375 76.37890625 C-51.55472233 82.70202885 -39.59019551 84.06795227 -27.5859375 81.69140625 C-15.56038219 78.31581178 -6.48768969 71.93335712 0.2578125 61.3046875 C5.82366266 50.85074754 6.74350111 38.19077793 4.1015625 26.73828125 C-0.19308878 14.53395237 -7.56293081 6.23242628 -19.05859375 0.37890625 C-36.45234665 -7.91794351 -59.08603369 -2.57582731 -71.93359375 11.19140625 Z " fill="#060606" transform="translate(1901.05859375,408.62109375)"/>
<path d="M0 0 C1.14154541 0.01023193 2.28309082 0.02046387 3.45922852 0.03100586 C11.98347515 0.24607691 18.58054026 1.25437449 26.0625 5.5625 C27.02929688 6.08199219 27.99609375 6.60148437 28.9921875 7.13671875 C40.89217655 14.05419206 49.74466223 25.38309844 53.5 38.75 C55.99211173 53.98268295 54.47110459 70.0583489 45.88671875 83.18359375 C37.06254895 94.69091582 24.69345668 103.44325279 10.0625 105.5625 C-0.37680982 106.18145068 -11.12892878 106.60222356 -20.9375 102.5625 C-22.40896484 101.95921875 -22.40896484 101.95921875 -23.91015625 101.34375 C-36.86621332 95.44718799 -46.17303497 86.12260225 -51.4765625 72.8671875 C-57.06768991 57.61074849 -56.13961873 43.62491279 -49.6875 28.6640625 C-43.40606584 15.92274435 -32.67649423 7.17843529 -19.42578125 2.43359375 C-12.88748753 0.31490623 -6.83754247 -0.09265237 0 0 Z M-33.25 23.8125 C-41.77167123 34.03850548 -45.12630763 45.35187516 -43.9375 58.5625 C-41.46694214 70.70473038 -36.26997395 81.38106421 -25.9375 88.5625 C-14.49272314 95.41478678 -1.97501345 97.65458872 11.25 94.9375 C23.82249411 91.01202695 32.38958048 84.49347101 38.7734375 73.07421875 C43.8615494 63.1601098 44.70628811 52.23351117 42.37109375 41.3359375 C38.64269129 30.2599302 31.49885155 20.14895964 21 14.75 C14.13509278 11.49000354 8.36031537 10.19786906 0.8125 10.25 C-0.45775024 10.25845947 -0.45775024 10.25845947 -1.75366211 10.26708984 C-14.19387391 10.5086938 -24.59395908 14.62053159 -33.25 23.8125 Z " fill="#050505" transform="translate(1653.9375,395.4375)"/>
<path d="M0 0 C3.63 0 7.26 0 11 0 C11 34.32 11 68.64 11 104 C7.37 104 3.74 104 0 104 C-0.33 88.49 -0.66 72.98 -1 57 C-32.68 56.505 -32.68 56.505 -65 56 C-65 71.84 -65 87.68 -65 104 C-68.63 104 -72.26 104 -76 104 C-76 70.01 -76 36.02 -76 1 C-72.37 1 -68.74 1 -65 1 C-65 16.18 -65 31.36 -65 47 C-43.88 46.67 -22.76 46.34 -1 46 C-0.67 30.82 -0.34 15.64 0 0 Z " fill="#020202" transform="translate(1444,396)"/>
<path d="M0 0 C1.31677734 0.75603516 1.31677734 0.75603516 2.66015625 1.52734375 C6.57609587 3.96627286 9.35671043 6.18282718 12 10 C10.02 11.98 8.04 13.96 6 16 C2.77319966 14.89078738 0.12278877 13.45502712 -2.6875 11.5625 C-13.95499666 4.54884646 -28.03797504 4.10893051 -40.83203125 6.80859375 C-51.93937736 10.61645024 -60.61037471 18.61207534 -66 29 C-70.36447821 38.16042576 -70.52014824 50.25809959 -68.30859375 60.06640625 C-67.38407481 62.53823723 -66.32532562 64.71978139 -65 67 C-64.56429688 67.77601563 -64.12859375 68.55203125 -63.6796875 69.3515625 C-57.80699737 78.94683217 -49.94625428 84.5191949 -39.5 88.25 C-27.25138618 90.92637034 -12.41716486 89.70887179 -1.52183533 83.35028076 C0.3906494 81.91228445 0.3906494 81.91228445 0.88647461 78.33300781 C0.92708826 76.8736023 0.93027683 75.41282828 0.90234375 73.953125 C0.91463516 73.18192322 0.92692657 72.41072144 0.93959045 71.6161499 C0.97131313 69.15979751 0.95504948 66.70644597 0.9375 64.25 C0.95060962 62.58200336 0.96684979 60.91402818 0.98632812 59.24609375 C1.02717556 55.16342246 1.02500306 51.08277765 1 47 C4.63 47 8.26 47 12 47 C12.24815034 52.56811189 12.42906728 58.13297791 12.54931641 63.70532227 C12.59945527 65.59814529 12.66759108 67.49058382 12.75439453 69.38208008 C13.45482086 85.04278869 13.45482086 85.04278869 9.96459961 89.73828125 C7.3701443 91.60395698 4.97140746 92.84190307 2 94 C0.23076172 94.86238281 0.23076172 94.86238281 -1.57421875 95.7421875 C-2.60160156 96.11601562 -3.62898438 96.48984375 -4.6875 96.875 C-5.72261719 97.26429688 -6.75773437 97.65359375 -7.82421875 98.0546875 C-24.33734764 102.9700346 -42.10517583 100.6338065 -57.140625 92.7265625 C-68.65869539 85.77166207 -77.02974591 74.10383858 -80.58984375 61.11914062 C-83.46089549 46.28537329 -81.39848687 31.27850928 -73.875 18.3125 C-58.66641913 -4.03414632 -24.06262292 -14.02737379 0 0 Z " fill="#070707" transform="translate(2014,401)"/>
<path d="M0 0 C23.43 0 46.86 0 71 0 C71 2.97 71 5.94 71 9 C51.2 9 31.4 9 11 9 C11 21.21 11 33.42 11 46 C28.49 46 45.98 46 64 46 C64 48.97 64 51.94 64 55 C46.51 55 29.02 55 11 55 C11 67.87 11 80.74 11 94 C31.46 94 51.92 94 73 94 C73 96.97 73 99.94 73 103 C48.91 103 24.82 103 0 103 C0 69.01 0 35.02 0 0 Z " fill="#000000" transform="translate(2101,397)"/>
<path d="M0 0 C23.43 0 46.86 0 71 0 C71 2.97 71 5.94 71 9 C51.2 9 31.4 9 11 9 C11 21.21 11 33.42 11 46 C28.49 46 45.98 46 64 46 C64 48.97 64 51.94 64 55 C46.51 55 29.02 55 11 55 C11 67.87 11 80.74 11 94 C31.46 94 51.92 94 73 94 C73 96.97 73 99.94 73 103 C48.91 103 24.82 103 0 103 C0 69.01 0 35.02 0 0 Z " fill="#000000" transform="translate(1163,397)"/>
<path d="M0 0 C0.98935547 -0.00322266 1.97871094 -0.00644531 2.99804688 -0.00976562 C11.34301267 0.05114653 18.10362534 1.55562595 25.8125 4.875 C26.83085937 5.30941406 27.84921875 5.74382812 28.8984375 6.19140625 C30.42620762 6.86597552 31.94374628 7.56562314 33.4375 8.3125 C32.4475 11.2825 31.4575 14.2525 30.4375 17.3125 C26.93124747 16.70840321 23.89202631 15.77364616 20.625 14.375 C9.26014915 9.78566963 -2.58486701 8.21088723 -14.4375 12.32421875 C-18.90275643 14.40089132 -21.82052234 17.19953351 -24.5625 21.3125 C-24.95690588 24.34223454 -24.95690588 24.34223454 -24.9375 27.6875 C-24.96585938 28.80898438 -24.99421875 29.93046875 -25.0234375 31.0859375 C-24.46402124 35.0018513 -23.33153023 36.53380474 -20.5625 39.3125 C-14.5438296 43.69295242 -7.45407692 45.16736862 -0.31591797 46.72729492 C13.13036107 49.72471309 27.25936664 53.35984354 35.4375 65.3125 C38.79799885 70.73817814 38.06698141 77.18333889 37.4375 83.3125 C35.30446379 90.66403412 30.87830139 96.22861919 24.4375 100.3125 C10.75594739 106.60639798 -6.34117339 107.70056806 -20.8125 103.36328125 C-27.82831882 100.68252093 -34.42632831 97.92110257 -39.5625 92.3125 C-38.44493734 88.44401386 -37.53376708 86.02327243 -34.5625 83.3125 C-34.01722656 83.69921875 -33.47195312 84.0859375 -32.91015625 84.484375 C-22.47779506 91.6889458 -13.92225959 94.49175801 -1.3125 94.5625 C-0.40886719 94.583125 0.49476563 94.60375 1.42578125 94.625 C8.89243464 94.66797354 15.45181932 93.72645459 21.375 88.9375 C25.00978251 84.31141316 25.97298849 80.34494553 25.80859375 74.5234375 C25.18856271 70.82935783 23.27707493 68.55934813 20.4375 66.3125 C13.43205263 61.83510538 5.38045702 59.71968493 -2.65112305 57.93408203 C-26.8931018 52.52095383 -26.8931018 52.52095383 -33.8359375 42.46875 C-37.88585636 35.23059715 -38.28920888 27.7206561 -36.40625 19.73046875 C-33.71789782 12.02634839 -27.71202842 6.90315205 -20.5625 3.3125 C-13.69247148 0.32564672 -7.42920221 -0.12147159 0 0 Z " fill="#060606" transform="translate(2229.5625,395.6875)"/>
<path d="M0 0 C0.98484375 -0.00322266 1.9696875 -0.00644531 2.984375 -0.00976562 C16.73271191 0.09105551 27.96036672 4.35692162 38.375 13.3125 C37.56595897 18.10530002 35.11515409 19.44770113 31.375 22.3125 C30.42625 21.405 29.4775 20.4975 28.5 19.5625 C18.27544113 10.75396965 5.18230531 10.520477 -7.625 11.3125 C-17.63589182 12.82309493 -26.7550908 18.26470559 -33.09375 26.11328125 C-39.88918159 35.87304652 -42.87685865 46.45113929 -41.625 58.3125 C-38.86141757 71.47092091 -32.61604327 81.50592009 -21.515625 89.1796875 C-11.13410066 95.40002233 2.5015589 95.95751925 14.0625 93.25 C19.30064238 91.65376134 23.5258001 88.89595148 27.96484375 85.73828125 C30.375 84.3125 30.375 84.3125 34.375 84.3125 C36.6875 86.0625 36.6875 86.0625 38.375 88.3125 C37.9139136 92.3032823 35.87377589 94.22226931 32.80078125 96.72265625 C19.28878013 105.57834781 2.91875247 107.15411167 -12.8125 104.75 C-26.19290452 101.4675839 -37.78286784 93.33912653 -45.5 82 C-52.87811288 69.62773996 -55.72324983 55.00757913 -52.94140625 40.828125 C-48.24677619 24.54301824 -39.57915107 13.28599359 -24.875 4.78515625 C-16.55043536 1.0130879 -9.10558524 -0.15015807 0 0 Z " fill="#060606" transform="translate(1305.625,395.6875)"/>
<path d="M0 0 C5.94 0 11.88 0 18 0 C18 42.24 18 84.48 18 128 C12.06 128 6.12 128 0 128 C0 85.76 0 43.52 0 0 Z " fill="#000000" transform="translate(1970,220)"/>
<path d="M0 0 C27.39 0 54.78 0 83 0 C83 2.97 83 5.94 83 9 C71.12 9 59.24 9 47 9 C47 40.02 47 71.04 47 103 C43.37 103 39.74 103 36 103 C36 71.98 36 40.96 36 9 C24.12 9 12.24 9 0 9 C0 6.03 0 3.06 0 0 Z " fill="#000000" transform="translate(1062,397)"/>
<path d="M0 0 C3.63 0 7.26 0 11 0 C11 31.35 11 62.7 11 95 C30.14 95 49.28 95 69 95 C69 97.97 69 100.94 69 104 C46.23 104 23.46 104 0 104 C0 69.68 0 35.36 0 0 Z " fill="#040404" transform="translate(1733,396)"/>
<path d="M0 0 C3.63 0 7.26 0 11 0 C11 33.99 11 67.98 11 103 C7.37 103 3.74 103 0 103 C0 69.01 0 35.02 0 0 Z " fill="#000000" transform="translate(2056,397)"/>
<path d="M0 0 C2.08828721 2.62834836 3.61831689 5.0872052 4.90112305 8.18603516 C5.41131233 9.40717514 5.41131233 9.40717514 5.93180847 10.65298462 C6.28817886 11.52289032 6.64454926 12.39279602 7.01171875 13.2890625 C7.57135063 14.63851456 7.57135063 14.63851456 8.14228821 16.01522827 C8.9274321 17.9120154 9.70977678 19.80996332 10.48950195 21.70898438 C11.68711534 24.6240637 12.89460942 27.53490089 14.10351562 30.4453125 C14.8651706 32.28881998 15.6262581 34.13256204 16.38671875 35.9765625 C16.74916183 36.85051666 17.11160492 37.72447083 17.48503113 38.62490845 C17.81570084 39.43269745 18.14637054 40.24048645 18.48706055 41.07275391 C18.78001511 41.78460846 19.07296967 42.49646301 19.37480164 43.22988892 C20 45 20 45 20 47 C7.13 47 -5.74 47 -19 47 C-18.29251926 43.46259629 -17.68048105 40.90644349 -16.34179688 37.68457031 C-16.00474731 36.86732483 -15.66769775 36.05007935 -15.32043457 35.20806885 C-14.95687866 34.34018738 -14.59332275 33.47230591 -14.21875 32.578125 C-13.84520386 31.67753357 -13.47165771 30.77694214 -13.08679199 29.84906006 C-12.29880851 27.95201554 -11.50859844 26.05589456 -10.71630859 24.16064453 C-9.49943721 21.24865324 -8.29020071 18.33357965 -7.08203125 15.41796875 C-6.31555124 13.5753348 -5.54863922 11.73288048 -4.78125 9.890625 C-4.41769409 9.01464661 -4.05413818 8.13866821 -3.67956543 7.23614502 C-3.34251587 6.43150818 -3.00546631 5.62687134 -2.65820312 4.79785156 C-2.36143677 4.0867926 -2.06467041 3.37573364 -1.75891113 2.64312744 C-1 1 -1 1 0 0 Z " fill="#FBFBFB" transform="translate(1247,251)"/>
</svg>
